<svg id="Layer_1" data-name="Layer 1" xmlns="http://www.w3.org/2000/svg" viewBox="0 0 23 23">
    <path fill="#5280b2" class="cls-1" d="M1398.83,49l-1,19h19l-1-19h-17Zm2-2h16a1.22,1.22,0,0,1,1,1l1,20.6,0,0a1.71,1.71,0,0,1-1.92,1.37h-19c-0.85,0-1.83-.44-1.95-1.26l-0.09-.09,1-20.66a1.3,1.3,0,0,1,1-1h1M1412,55.12c-0.62,3.45-1.35,4.87-4.63,4.87s-4-1.42-4.64-4.87a1.67,1.67,0,0,1-.85-1.46,1.62,1.62,0,1,1,3.24,0,1.68,1.68,0,0,1-.66,1.34c0.47,2.24.24,3.26,2.92,3.26s2.45-1,2.92-3.27a1.68,1.68,0,0,1-.65-1.33,1.62,1.62,0,1,1,3.24,0A1.67,1.67,0,0,1,1412,55.12Z" transform="translate(-1395.79 -46.99)"/>
</svg>