<svg id="Layer_1" data-name="Layer 1" xmlns="http://www.w3.org/2000/svg" viewBox="0 0 16.03 16.65">
    <path fill="#5280b2"
          class="cls-1" d="M854.64,854.93a1,1,0,0,1,1,1,1,1,0,0,1-1,1,1,1,0,0,1-1-1A1,1,0,0,1,854.64,854.93Z"
          transform="translate(-849.67 -840.3)"/>
    <path fill="#5280b2"
          class="cls-1" d="M864.47,843H853.56l-0.09-1.13s-0.89-1.61-2.13-1.61c0,0-1.67.5-1.67,1.62h1.58s1.53,10.17,1.53,10.43a2,2,0,0,0,1.1,1.6H864c0.85,0,.85-1.95,0-1.95h-9.52l-0.25-1.07L864.46,851a1.23,1.23,0,0,0,1.24-1.19v-5.61A1.29,1.29,0,0,0,864.47,843Zm-0.81,5.39a0.6,0.6,0,0,1-.6.61l-8.29.06a0.6,0.6,0,0,1-.6-0.6l-0.23-2.89a0.6,0.6,0,0,1,.6-0.6l8.52-.06a0.6,0.6,0,0,1,.6.6v2.88Z"
          transform="translate(-849.67 -840.3)"/>
    <path fill="#5280b2"
          class="cls-1" d="M861.64,854.93a1,1,0,0,1,1,1,1,1,0,0,1-1,1,1,1,0,0,1-1-1A1,1,0,0,1,861.64,854.93Z"
          transform="translate(-849.67 -840.3)"/>
</svg>