<svg id="svg-icon__cart" xmlns="http://www.w3.org/2000/svg" viewBox="0 0 31 28" width="100%" height="100%">
    <path fill="#5280b2" class="cls-1" d="M10 22a3 3 0 1 0 3 3 3 3 0 0 0-3-3zm0 4a1 1 0 1 1 1-1 1 1 0 0 1-1 1zm15-4a3 3 0 1 0 3 3 3 3 0 0 0-3-3zm0 4a1 1 0 1 1 1-1 1 1 0 0 1-1 1zm-5-3h-5a1 1 0 0 0 0 2h5a1 1 0 0 0 0-2zm9-16H7.07L5 1c-.28-.78-.46-1-1-1H1a1 1 0 0 0 0 2h2l6 16v2a1.06 1.06 0 0 0 1.07 1 .92.92 0 0 0 .91-1h15c1.1 0 1.55-.73 2-2l3-10C31 6.89 30.11 7 29 7zm-3 11H11L8 9h21z"></path>
</svg>