<svg id="svg-icon__shopping-cart" viewBox="0 0 32 32" width="100%" height="100%" xmlns="http://www.w3.org/2000/svg">
    <path fill="#5280b2" d="M24.615 27.077c0 .68.241 1.26.721 1.74s1.061.721 1.741.721c.679 0 1.259-.241 1.74-.721s.721-1.06.721-1.74-.24-1.26-.721-1.741a2.373 2.373 0 0 0-1.74-.721c-.68 0-1.26.241-1.741.721s-.721 1.061-.721 1.741z"></path>
    <path fill="#5280b2" d="M31.634 5.288a1.181 1.181 0 0 0-.865-.365H7.673c-.013-.09-.042-.253-.087-.49l-.106-.567c-.026-.141-.074-.311-.144-.509s-.154-.356-.25-.471a1.216 1.216 0 0 0-.932-.423H1.231c-.334 0-.622.122-.866.365S0 3.36 0 3.693s.122.622.365.865c.244.244.532.365.866.365h3.923L8.558 20.75c-.025.051-.157.295-.394.731s-.426.817-.567 1.144c-.141.327-.212.58-.212.76 0 .333.122.622.365.866.244.243.532.365.866.365h19.692c.333 0 .622-.122.865-.365s.366-.532.366-.866-.122-.622-.366-.865a1.184 1.184 0 0 0-.865-.366H10.616c.308-.616.462-1.025.462-1.23 0-.129-.016-.27-.048-.423s-.071-.324-.115-.51a4.443 4.443 0 0 1-.086-.413l20.077-2.346c.32-.039.583-.176.788-.414s.307-.509.307-.817V6.155c0-.333-.122-.622-.365-.866z"></path>
    <path fill="#5280b2" d="M7.384 27.077c0 .68.24 1.26.721 1.74s1.061.721 1.741.721c.679 0 1.26-.241 1.74-.721s.721-1.06.721-1.74-.24-1.26-.721-1.741c-.481-.48-1.061-.721-1.74-.721s-1.26.241-1.741.721a2.371 2.371 0 0 0-.721 1.741z"></path>
</svg>