<svg xmlns="http://www.w3.org/2000/svg"><symbol id="svg-icon__alarm-clock"><path d="M18.5 1.69C9.77 1.69 2.69 8.769 2.69 17.5c0 3.78 1.327 7.25 3.54 9.97l-4.22 4.22 1.3 1.3 4.162-4.16A15.758 15.758 0 0 0 18.5 33.31c4.289 0 8.179-1.708 11.028-4.482l4.162 4.161 1.3-1.3-4.22-4.219a15.743 15.743 0 0 0 3.54-9.97c0-8.731-7.08-15.81-15.81-15.81zm0 29.308C11.04 30.998 5 24.954 5 17.5c0-7.455 6.04-13.498 13.5-13.498S32 10.045 32 17.5c0 7.454-6.04 13.498-13.5 13.498zM.01 6.689l1.3 1.3 6.68-6.678-1.3-1.3zM30.31.011l-1.3 1.3 6.68 6.678 1.3-1.3zM19 17V8h-2v11h10v-2z"/></symbol><symbol id="svg-icon__angle-left" viewBox="0 0 32 32"><path d="M12.408 16L25.009 3.399c.214-.214.321-.46.321-.737s-.107-.524-.321-.737L23.406.322c-.214-.214-.46-.321-.737-.321s-.524.107-.738.321L6.989 15.264c-.214.214-.32.46-.32.738s.107.524.32.737L21.93 31.681c.214.214.46.321.738.321s.523-.107.737-.321l1.603-1.602c.214-.214.32-.46.32-.738s-.106-.523-.32-.737L12.407 16.002z"/></symbol><symbol id="svg-icon__angle-right" viewBox="0 0 32 32"><path d="M25.011 15.262L10.069.32c-.214-.214-.46-.321-.738-.321s-.524.107-.738.321L6.99 1.923c-.214.214-.321.459-.321.738s.107.524.321.737l12.601 12.601L6.99 28.6c-.214.214-.321.46-.321.737s.107.524.321.738l1.603 1.603c.214.214.46.321.738.321s.524-.107.738-.321L25.01 16.736c.214-.214.321-.46.321-.738s-.106-.524-.32-.738z"/></symbol><symbol id="svg-icon__arrow-big-left" viewBox="0 0 15 52"><path d="M14 0l.89.46-14 26L0 26z"/><path d="M.89 25.51l-.89.45 14.12 25.57.89-.45z"/></symbol><symbol id="svg-icon__arrow-big-right" viewBox="0 0 15 52"><path d="M.99 0L.13.46l13.6 25.89.86-.46z"/><path d="M13.72 25.42l.87.45L.89 51.33l-.87-.45z"/></symbol><symbol id="svg-icon__arrow-down" viewBox="0 0 11.99 8"><path d="M2.13.39L8.01 6.1 6.2 8 .3 2.29A1.27 1.27 0 0 1 .38.56 1.36 1.36 0 0 1 2.13.39z"/><path d="M11.81 2L6.2 8 4.3 6.18l5.61-6a1.79 1.79 0 0 1 1.75.12 1.67 1.67 0 0 1 .15 1.7z"/></symbol><symbol id="svg-icon__arrow-right" viewBox="0 0 4 7"><path d="M1.23.22L3.8 2.97a.78.78 0 0 1 0 1.07.7.7 0 0 1-1 0L.23 1.29a.78.78 0 0 1 0-1.07.7.7 0 0 1 1 0z"/><path d="M1.23 6.78L3.8 4.03a.78.78 0 0 0 0-1.07.7.7 0 0 0-1 0L.23 5.71a.78.78 0 0 0 0 1.07.7.7 0 0 0 1 0z"/></symbol><symbol id="svg-icon__arrow-top" viewBox="0 0 11.99 8"><path d="M2.13 7.61L8.01 1.9 6.2-.02.3 5.71a1.27 1.27 0 0 0 .08 1.73 1.36 1.36 0 0 0 1.75.17z"/><path d="M11.81 5.98l-5.61-6-1.9 1.84 5.61 6a1.79 1.79 0 0 0 1.75-.12 1.67 1.67 0 0 0 .15-1.72z"/></symbol><symbol id="svg-icon__arrow" viewBox="0 0 15 6"><path d="M15 3l-3-3v2H0v2h12v2z"/></symbol><symbol id="svg-icon__available" viewBox="0 0 15 14"><path d="M1.44 5.13s4.5 3.79 4.61 3.79c2.75-3.7 7.27-8.93 7.27-8.93l1.53 1s-6.83 10.53-8.42 12.9a64 64 0 0 1-6.43-7z"/></symbol><symbol id="svg-icon__calendar" viewBox="0 0 13 12" preserveAspectRatio="xMidYMid"><path d="M12 12H1a1 1 0 0 1-1-1V2a1 1 0 0 1 1-1h1a1 1 0 1 1 2 0h5a1 1 0 1 1 2 0h1a1 1 0 0 1 1 1v9a1 1 0 0 1-1 1zm-1-9H2v7h9V3zM5 5H4V4h1v1zm0 2H4V6h1v1zm0 2H4V8h1v1zm2-4H6V4h1v1zm0 2H6V6h1v1zm0 2H6V8h1v1zm2-4H8V4h1v1zm0 2H8V6h1v1zm0 2H8V8h1v1z" class="cls-1"/></symbol><symbol id="svg-icon__cart-bag" viewBox="0 0 23 23"><path class="cls-1" d="M3.04 2.01l-1 19h19l-1-19h-17zm2-2h16a1.22 1.22 0 0 1 1 1l1 20.6a1.71 1.71 0 0 1-1.92 1.37h-19c-.85 0-1.83-.44-1.95-1.26l-.09-.09 1-20.66a1.3 1.3 0 0 1 1-1h1m13.13 8.16c-.62 3.45-1.35 4.87-4.63 4.87s-4-1.42-4.64-4.87a1.67 1.67 0 0 1-.85-1.46 1.62 1.62 0 1 1 3.24 0 1.68 1.68 0 0 1-.66 1.34c.47 2.24.24 3.26 2.92 3.26s2.45-1 2.92-3.27a1.68 1.68 0 0 1-.65-1.33 1.62 1.62 0 1 1 3.24 0 1.67 1.67 0 0 1-.89 1.46z"/></symbol><symbol id="svg-icon__cart-small" viewBox="0 0 16.03 16.65"><path class="cls-1" d="M4.97 14.63a1 1 0 0 1 1 1 1 1 0 0 1-1 1 1 1 0 0 1-1-1 1 1 0 0 1 1-1zM14.8 2.7H3.89L3.8 1.57S2.91-.04 1.67-.04c0 0-1.67.5-1.67 1.62h1.58s1.53 10.17 1.53 10.43a2 2 0 0 0 1.1 1.6h10.12c.85 0 .85-1.95 0-1.95H4.81l-.25-1.07 10.23.11a1.23 1.23 0 0 0 1.24-1.19V3.9a1.29 1.29 0 0 0-1.23-1.2zm-.81 5.39a.6.6 0 0 1-.6.61l-8.29.06a.6.6 0 0 1-.6-.6l-.23-2.89a.6.6 0 0 1 .6-.6l8.52-.06a.6.6 0 0 1 .6.6v2.88zm-2.02 6.54a1 1 0 0 1 1 1 1 1 0 0 1-1 1 1 1 0 0 1-1-1 1 1 0 0 1 1-1z"/></symbol><symbol id="svg-icon__cart-thin" viewBox="0 0 31 28"><path class="cls-1" d="M10 22a3 3 0 1 0 3 3 3 3 0 0 0-3-3zm0 4a1 1 0 1 1 1-1 1 1 0 0 1-1 1zm15-4a3 3 0 1 0 3 3 3 3 0 0 0-3-3zm0 4a1 1 0 1 1 1-1 1 1 0 0 1-1 1zm-5-3h-5a1 1 0 0 0 0 2h5a1 1 0 0 0 0-2zm9-16H7.07L5 1c-.28-.78-.46-1-1-1H1a1 1 0 0 0 0 2h2l6 16v2a1.06 1.06 0 0 0 1.07 1 .92.92 0 0 0 .91-1h15c1.1 0 1.55-.73 2-2l3-10C31 6.89 30.11 7 29 7zm-3 11H11L8 9h21z"/></symbol><symbol id="svg-icon__cart" viewBox="0 0 35 32"><path d="M34.73 9.26l-6 13A3 3 0 0 1 26 24H7a3 3 0 0 1-3-3V6.12L.44 2.56A1.5 1.5 0 1 1 2.56.44L7.12 5H32a3 3 0 0 1 2.73 4.26zM7 21h19l3.69-8H7v8zM32 8H7v2h24.08L32 8zM8 26a3 3 0 1 1-3 3 3 3 0 0 1 3-3zm16 0a3 3 0 1 1-3 3 3 3 0 0 1 3-3z"/></symbol><symbol id="svg-icon__clock-big" viewBox="0 0 36 36"><path d="M18 0a18 18 0 1 0 18 18A18 18 0 0 0 18 0zm0 32a14 14 0 1 1 14-14 14 14 0 0 1-14 14z"/><path d="M16.73 10h1.66l.67 10-3.07.05z"/><path d="M16.13 19.87l1.7-2.64 6.14 5.12-.62 1.36z"/></symbol><symbol id="svg-icon__close-bold" viewBox="0 0 7 7"><path d="M.15.13a.56.56 0 0 1 .78.06l5.89 5.89a.52.52 0 1 1-.72.72L.21.91A.56.56 0 0 1 .15.13z"/><path d="M6.86.13a.56.56 0 0 0-.78.06L.19 6.08a.52.52 0 1 0 .72.72L6.8.91a.56.56 0 0 0 .06-.78z"/></symbol><symbol id="svg-icon__close" viewBox="0 0 16 16"><path d="M.66.7l.71-.71 15 15-.71.71z"/><path d="M16.02 1.06l-.7-.72-15.3 15.3.72.72z"/></symbol><symbol id="svg-icon__comment" viewBox="0 0 511.626 511.626"><path d="M477.371 127.44c-22.843-28.074-53.871-50.249-93.076-66.523-39.204-16.272-82.035-24.41-128.478-24.41-34.643 0-67.762 4.805-99.357 14.417-31.595 9.611-58.812 22.602-81.653 38.97-22.845 16.37-41.018 35.832-54.534 58.385C6.757 170.833 0 194.484 0 219.228c0 28.549 8.61 55.3 25.837 80.234 17.227 24.931 40.778 45.871 70.664 62.811-2.096 7.611-4.57 14.846-7.426 21.693-2.855 6.852-5.424 12.474-7.708 16.851-2.286 4.377-5.376 9.233-9.281 14.562-3.899 5.328-6.849 9.089-8.848 11.275-1.997 2.19-5.28 5.812-9.851 10.849-4.565 5.048-7.517 8.329-8.848 9.855-.193.089-.953.952-2.285 2.567-1.331 1.615-1.999 2.423-1.999 2.423l-1.713 2.566c-.953 1.431-1.381 2.334-1.287 2.707.096.373-.094 1.331-.57 2.851-.477 1.526-.428 2.669.142 3.433v.284c.765 3.429 2.43 6.187 4.998 8.277 2.568 2.092 5.474 2.95 8.708 2.563 12.375-1.522 23.223-3.606 32.548-6.276 49.87-12.758 93.649-35.782 131.334-69.097 14.272 1.522 28.072 2.286 41.396 2.286 46.442 0 89.271-8.138 128.479-24.417 39.208-16.272 70.233-38.448 93.072-66.517 22.843-28.062 34.263-58.663 34.263-91.781.001-33.119-11.418-63.718-34.254-91.787z"/></symbol><symbol id="svg-icon__compare" viewBox="0 0 13 15"><path d="M0 13v2h13v-2H0zM5 0a1.08 1.08 0 0 0-1 1v11h2V1a1.08 1.08 0 0 0-1-1zm6 2a1.08 1.08 0 0 0-1 1v9h2V3a1.08 1.08 0 0 0-1-1zM8 6a1.08 1.08 0 0 0-1 1v5h2V7a1.08 1.08 0 0 0-1-1zM2 4a1.08 1.08 0 0 0-1 1v7h2V5a1.08 1.08 0 0 0-1-1z"/></symbol><symbol id="svg-icon__customer-logout" viewBox="0 0 122.775 122.776"><path d="M86 28.074v-20.7c0-3.3-2.699-6-6-6H6c-3.3 0-6 2.7-6 6v84.801c0 2.199 1.3 4.299 3.2 5.299l45.6 23.601c2 1 4.4-.399 4.4-2.7v-23H80c3.301 0 6-2.699 6-6v-32.8H74v23.8c0 1.7-1.3 3-3 3H53.3v-50.9c0-2.2-1.3-4.3-3.2-5.3l-26.9-13.8H71c1.7 0 3 1.3 3 3v11.8h12v-.101z"/><path d="M101.4 18.273l19.5 19.5c2.5 2.5 2.5 6.2 0 8.7l-19.5 19.5c-2.5 2.5-6.301 2.601-8.801.101-2.399-2.399-2.1-6.4.201-8.8l8.799-8.7H67.5c-1.699 0-3.4-.7-4.5-2-2.8-3-2.1-8.3 1.5-10.3.9-.5 2-.8 3-.8h34.1s-8.699-8.7-8.799-8.7c-2.301-2.3-2.601-6.4-.201-8.7 2.4-2.4 6.3-2.301 8.8.199z"/></symbol><symbol id="svg-icon__dashboard" viewBox="0 0 511.626 511.627"><path d="M491.361 211.274c-13.511-31.599-31.689-58.813-54.529-81.658-22.839-22.841-50.059-41.017-81.659-54.53-31.601-13.513-64.713-20.271-99.359-20.271-34.644 0-67.762 6.759-99.357 20.271-31.595 13.518-58.813 31.689-81.653 54.53-22.845 22.845-41.018 50.059-54.534 81.658C6.757 242.873 0 275.988 0 310.631c0 49.865 13.418 95.838 40.256 137.903 3.614 5.52 8.754 8.278 15.417 8.278h400.281c6.66 0 11.8-2.759 15.414-8.278 26.84-42.254 40.258-88.224 40.258-137.903 0-34.643-6.754-67.758-20.265-99.357zM229.973 102.069c7.142-7.139 15.752-10.709 25.84-10.709 10.089 0 18.699 3.571 25.838 10.709 7.139 7.135 10.711 15.749 10.711 25.837s-3.572 18.699-10.711 25.837-15.749 10.709-25.838 10.709c-10.088 0-18.702-3.571-25.84-10.709-7.135-7.139-10.707-15.749-10.707-25.837s3.568-18.701 10.707-25.837zm-131.044 234.4c-7.138 7.135-15.752 10.715-25.84 10.715-10.085 0-18.699-3.58-25.837-10.715-7.139-7.132-10.705-15.749-10.705-25.838 0-10.088 3.566-18.698 10.705-25.837s15.752-10.708 25.837-10.708c10.088 0 18.706 3.569 25.84 10.708 7.135 7.139 10.707 15.749 10.707 25.837 0 10.089-3.572 18.699-10.707 25.838zm54.819-127.907c-7.142 7.137-15.752 10.709-25.841 10.709s-18.702-3.576-25.841-10.709c-7.135-7.135-10.706-15.749-10.706-25.837s3.567-18.699 10.706-25.837c7.142-7.139 15.752-10.709 25.841-10.709 10.088 0 18.702 3.571 25.841 10.709 7.135 7.139 10.706 15.749 10.706 25.837 0 10.085-3.572 18.698-10.706 25.837zm161.734 2.428l-28.839 109.062c9.524 6.468 16.376 15.126 20.564 25.98 4.182 10.849 4.757 21.984 1.711 33.404-3.806 14.657-12.278 25.793-25.413 33.403-13.135 7.614-27.026 9.521-41.686 5.712-14.653-3.806-25.791-12.275-33.402-25.41-7.611-13.138-9.514-27.027-5.708-41.688 3.044-11.416 9.04-20.79 17.987-28.113 8.944-7.333 19.126-11.468 30.546-12.422l28.837-109.064c1.331-4.948 4.186-8.711 8.562-11.281 4.381-2.565 8.945-3.184 13.706-1.853 4.764 1.334 8.425 4.139 10.991 8.42 2.576 4.287 3.287 8.902 2.144 13.85zm42.4-2.428c-7.139-7.135-10.711-15.749-10.711-25.837s3.572-18.699 10.711-25.837 15.749-10.709 25.838-10.709c10.088 0 18.698 3.571 25.837 10.709s10.712 15.749 10.712 25.837c0 10.085-3.573 18.699-10.712 25.837-7.139 7.137-15.749 10.709-25.837 10.709-10.089 0-18.699-3.572-25.838-10.709zm106.492 127.907c-7.139 7.135-15.749 10.715-25.837 10.715-10.089 0-18.699-3.58-25.838-10.715-7.139-7.132-10.708-15.749-10.708-25.838 0-10.088 3.569-18.698 10.708-25.837s15.749-10.708 25.838-10.708c10.088 0 18.698 3.569 25.837 10.708s10.704 15.749 10.704 25.837c0 10.089-3.566 18.699-10.704 25.838z"/></symbol><symbol id="svg-icon__delete" viewBox="0 0 20 20"><path d="M10-.01a10 10 0 1 0 10 10 10 10 0 0 0-10-10zm0 19a9 9 0 1 1 9-9 9 9 0 0 1-9 9z"/><path d="M13.72 6.29a1 1 0 0 0-1.4 0l-6 6a1 1 0 0 0 1.4 1.4l6-6a1 1 0 0 0 0-1.4z"/><path d="M6.31 6.29a1 1 0 0 1 1.4 0l6 6a1 1 0 1 1-1.4 1.4l-6-6a1 1 0 0 1 0-1.4z"/></symbol><symbol id="svg-icon__delivery-truck" viewBox="0 0 493.349 493.349"><path d="M487.932 51.1c-3.613-3.612-7.905-5.424-12.847-5.424h-292.36c-4.948 0-9.233 1.812-12.847 5.424-3.615 3.617-5.424 7.902-5.424 12.85v54.818h-45.683c-5.14 0-10.71 1.237-16.705 3.711-5.996 2.478-10.801 5.518-14.416 9.135l-56.532 56.531c-2.473 2.474-4.612 5.327-6.424 8.565-1.807 3.23-3.14 6.14-3.997 8.705-.855 2.572-1.477 6.089-1.854 10.566-.378 4.475-.62 7.758-.715 9.853-.091 2.092-.091 5.71 0 10.85.096 5.142.144 8.47.144 9.995v91.36c-4.947 0-9.229 1.807-12.847 5.428C1.809 347.076 0 351.363 0 356.312c0 2.851.378 5.376 1.14 7.562.763 2.19 2.046 3.949 3.858 5.284a92.406 92.406 0 0 0 4.709 3.285c1.335.855 3.571 1.424 6.711 1.711s5.28.479 6.423.575c1.143.089 3.568.089 7.279 0 3.715-.096 5.855-.144 6.427-.144h18.271c0 20.17 7.139 37.397 21.411 51.674 14.277 14.274 31.501 21.413 51.678 21.413 20.175 0 37.401-7.139 51.675-21.413 14.277-14.276 21.411-31.504 21.411-51.674H310.63c0 20.17 7.139 37.397 21.412 51.674 14.271 14.274 31.498 21.413 51.675 21.413 20.181 0 37.397-7.139 51.675-21.413 14.277-14.276 21.412-31.504 21.412-51.674.568 0 2.711.048 6.42.144 3.713.089 6.14.089 7.282 0 1.144-.096 3.289-.288 6.427-.575 3.139-.287 5.373-.855 6.708-1.711s2.901-1.95 4.709-3.285c1.81-1.335 3.097-3.094 3.856-5.284.77-2.187 1.143-4.712 1.143-7.562V63.953c.004-4.949-1.803-9.229-5.417-12.853zM153.597 400.28c-7.229 7.23-15.797 10.854-25.694 10.854-9.898 0-18.464-3.62-25.697-10.854-7.233-7.228-10.848-15.797-10.848-25.693 0-9.897 3.619-18.47 10.848-25.701 7.232-7.228 15.798-10.848 25.697-10.848 9.897 0 18.464 3.617 25.694 10.848 7.236 7.231 10.853 15.804 10.853 25.701 0 9.896-3.617 18.465-10.853 25.693zm10.853-171.877H54.814v-8.562c0-2.475.855-4.569 2.568-6.283l55.674-55.672c1.712-1.714 3.809-2.568 6.283-2.568h45.111v73.085zM409.41 400.28c-7.23 7.23-15.797 10.854-25.693 10.854-9.9 0-18.47-3.62-25.7-10.854-7.231-7.228-10.849-15.797-10.849-25.693 0-9.897 3.617-18.47 10.849-25.701 7.23-7.228 15.8-10.848 25.7-10.848 9.896 0 18.463 3.617 25.693 10.848 7.231 7.235 10.852 15.804 10.852 25.701 0 9.896-3.614 18.465-10.852 25.693z"/></symbol><symbol id="svg-icon__delivery" viewBox="0 0 30 19"><path d="M27-.01H13c-1.86 0-2.87.82-2.87 3l.87.21v12.44c0 1.11 1.81 1.35 3 1.35h9a2 2 0 0 1-2-2h-9v-13h16v13h-3a2 2 0 0 1-2 2h4c2.21 0 3-.79 3-3v-11c0-2.2-.79-3-3-3z"/><path d="M12 9.99h16v1H12v-1zm11 2a3 3 0 0 0-3 3 2.07 2.07 0 0 0 0 .5 2.93 2.93 0 0 0 .72 1.5 3 3 0 0 0 2.23 1 2.94 2.94 0 0 0 2.23-1 2.78 2.78 0 0 0 .72-1.5 2.07 2.07 0 0 0 0-.5 3 3 0 0 0-2.9-3zm-2 3a2 2 0 0 1 1.77-2 1.33 1.33 0 0 1 .46 0 2 2 0 1 1-2.23 2z"/><path d="M25.95 15.5a2.15 2.15 0 0 0-.12-.5 3 3 0 0 0-2.6-2 2 2 0 1 1-.46 0 3 3 0 0 0-2.59 2 1.76 1.76 0 0 0-.13.5 2.07 2.07 0 0 0 0 .5 2.77 2.77 0 0 0 .18 1 3 3 0 0 0 5.82-1 2.07 2.07 0 0 0-.1-.5zM6 4.99h5.78v-2H5S.19 8.89 0 9.6v4.39c.52 2.18 4 3 4 3h3a2 2 0 0 1-2-2H2v-5zm8.25 12l-3.25-2H9a2 2 0 0 1-2 2h7.25z"/><path d="M10 5.99H7l-3 4h6v-4zm-3 6a3 3 0 0 0-3 3 2.07 2.07 0 0 0 0 .5 2.93 2.93 0 0 0 .72 1.5 3 3 0 0 0 2.23 1 2.94 2.94 0 0 0 2.23-1 2.78 2.78 0 0 0 .72-1.5 2.07 2.07 0 0 0 0-.5 3 3 0 0 0-2.9-3zm-2 3a2 2 0 0 1 1.77-2 1.33 1.33 0 0 1 .46 0 2 2 0 1 1-2.23 2z"/><path d="M9.95 15.5a2.15 2.15 0 0 0-.12-.5 3 3 0 0 0-2.6-2 2 2 0 1 1-.46 0 3 3 0 0 0-2.59 2 1.76 1.76 0 0 0-.13.5 2.07 2.07 0 0 0 0 .5 2.77 2.77 0 0 0 .18 1 3 3 0 0 0 5.82-1 2.07 2.07 0 0 0-.1-.5z"/></symbol><symbol id="svg-icon__download" viewBox="0.328 0 512 526.05"><path d="M482.842 308.102c-16.287 0-29.486 13.194-29.486 29.486v129.488H59.302V337.588c0-16.292-13.188-29.486-29.486-29.486C13.53 308.102.33 321.296.33 337.588v158.975c0 16.287 13.2 29.487 29.486 29.487h453.026c16.287 0 29.487-13.2 29.487-29.487V337.588c0-16.292-13.2-29.486-29.488-29.486z"/><path d="M235.473 374.613a29.506 29.506 0 0 0 20.854 8.64 29.412 29.412 0 0 0 20.845-8.64l118.903-118.905c11.518-11.51 11.518-30.18 0-41.693-11.507-11.52-30.19-11.52-41.696 0l-68.57 68.568V29.487C285.81 13.197 272.61 0 256.328 0 240.04 0 226.84 13.197 226.84 29.487v253.09l-68.55-68.557c-11.52-11.52-30.195-11.513-41.702-.006-11.507 11.52-11.507 30.19-.006 41.7l118.89 118.9z"/></symbol><symbol id="svg-icon__downloads" viewBox="0 0 29.978 29.978"><path d="M25.462 19.105v6.848H4.515v-6.848H.489v8.861c0 1.111.9 2.012 2.016 2.012h24.967c1.115 0 2.016-.9 2.016-2.012v-8.861h-4.026zm-10.842-.679l-5.764-6.965s-.877-.828.074-.828h3.248V.494S12.049 0 12.793 0h4.572c.536 0 .524.416.524.416v10.008h2.998c1.154 0 .285.867.285.867s-4.904 6.51-5.588 7.193c-.492.495-.964-.058-.964-.058z"/></symbol><symbol id="svg-icon__edit-account" viewBox="0 0 16 16"><path d="M15 16H1a1 1 0 0 1-1-1v-1h.1a6 6 0 0 1 4.55-4.83A4 4 0 0 1 4 7V4a4 4 0 1 1 8 0v3a4 4 0 0 1-.65 2.17A6 6 0 0 1 15.9 14h.1v1a1 1 0 0 1-1 1zM10 4a2 2 0 0 0-4 0v3a2 2 0 0 0 4 0V4zm0 7H6a4 4 0 0 0-3.86 3h11.72A4 4 0 0 0 10 11z"/></symbol><symbol id="svg-icon__edit-address" viewBox="0 0 460.298 460.297"><path d="M230.149 120.939L65.986 256.274c0 .191-.048.472-.144.855-.094.38-.144.656-.144.852v137.041c0 4.948 1.809 9.236 5.426 12.847 3.616 3.613 7.898 5.431 12.847 5.431h109.63V303.664h73.097v109.64h109.629c4.948 0 9.236-1.814 12.847-5.435 3.617-3.607 5.432-7.898 5.432-12.847V257.981c0-.76-.104-1.334-.288-1.707L230.149 120.939z"/><path d="M457.122 225.438L394.6 173.476V56.989c0-2.663-.856-4.853-2.574-6.567-1.704-1.712-3.894-2.568-6.563-2.568h-54.816c-2.666 0-4.855.856-6.57 2.568-1.711 1.714-2.566 3.905-2.566 6.567v55.673l-69.662-58.245c-6.084-4.949-13.318-7.423-21.694-7.423-8.375 0-15.608 2.474-21.698 7.423L3.172 225.438c-1.903 1.52-2.946 3.566-3.14 6.136-.193 2.568.472 4.811 1.997 6.713l17.701 21.128c1.525 1.712 3.521 2.759 5.996 3.142 2.285.192 4.57-.476 6.855-1.998L230.149 95.817l197.57 164.741c1.526 1.328 3.521 1.991 5.996 1.991h.858c2.471-.376 4.463-1.43 5.996-3.138l17.703-21.125c1.522-1.906 2.189-4.145 1.991-6.716-.195-2.563-1.242-4.609-3.141-6.132z"/></symbol><symbol id="svg-icon__edit" viewBox="0 0 511.995 511.995"><path d="M497.941 14.057c18.75 18.75 18.719 49.141 0 67.891l-22.625 22.625-67.906-67.891 22.625-22.625c18.749-18.734 49.156-18.75 67.906 0zM158.534 285.588l-22.609 90.5 90.5-22.625 226.266-226.266-67.906-67.891-226.251 226.282zm225.469-44.438v206.844h-320v-320h206.859l63.983-64H.003v448h448v-334.86l-64 64.016z"/></symbol><symbol id="svg-icon__eye-close-up" viewBox="0 0 932.15 932.15"><path d="M466.075 161.525c-205.6 0-382.8 121.2-464.2 296.1-2.5 5.3-2.5 11.5 0 16.9 81.4 174.899 258.601 296.1 464.2 296.1s382.8-121.2 464.2-296.1c2.5-5.3 2.5-11.5 0-16.9-81.4-174.9-258.6-296.1-464.2-296.1zm0 514.701c-116.1 0-210.1-94.101-210.1-210.101 0-116.1 94.1-210.1 210.1-210.1 116.1 0 210.1 94.1 210.1 210.1s-94.1 210.101-210.1 210.101z"/><circle cx="466.075" cy="466.025" r="134.5"/></symbol><symbol id="svg-icon__eye" viewBox="0 0 22.81 13"><path d="M22.51 5.71C22.31 5.476 17.52 0 11.4 0S.49 5.476.29 5.71a1.19 1.19 0 0 0 0 1.58C.49 7.524 5.28 13 11.4 13s10.91-5.477 11.12-5.71a1.2 1.2 0 0 0-.01-1.58zm-8.1-.478a1.017 1.017 0 0 1-1.28-.569.991.991 0 0 1 .21-1.373 1.017 1.017 0 0 1 1.28.568.992.992 0 0 1-.21 1.374zm-3.01 6.3c-4.9 0-9.02-4.151-9.83-5.03a16.871 16.871 0 0 1 7.69-4.767 4.678 4.678 0 1 0 5.41.693c.22-.132.34-.231.27-.278a17.889 17.889 0 0 1 6.29 4.352c-.81.876-4.93 5.028-9.83 5.028z"/></symbol><symbol id="svg-icon__facebook-logo" viewBox="0 0 96.124 96.123"><path d="M72.089.02L59.624 0C45.62 0 36.57 9.285 36.57 23.656v10.907H24.037a1.96 1.96 0 0 0-1.96 1.961v15.803a1.96 1.96 0 0 0 1.96 1.96H36.57v39.876a1.96 1.96 0 0 0 1.96 1.96h16.352a1.96 1.96 0 0 0 1.96-1.96V54.287h14.654a1.96 1.96 0 0 0 1.96-1.96l.006-15.803a1.963 1.963 0 0 0-1.961-1.961H56.842v-9.246c0-4.444 1.059-6.7 6.848-6.7l8.397-.003a1.96 1.96 0 0 0 1.959-1.96V1.98A1.96 1.96 0 0 0 72.089.02z"/></symbol><symbol id="svg-icon__facebook" viewBox="0 0 56.693 56.693"><path d="M40.43 21.739h-7.645v-5.014c0-1.883 1.248-2.322 2.127-2.322h5.395V6.125l-7.43-.029c-8.248 0-10.125 6.174-10.125 10.125v5.518h-4.77v8.53h4.77v24.137h10.033V30.269h6.77l.875-8.53z"/></symbol><symbol id="svg-icon__google-plus-logo" viewBox="0 0 96.828 96.827"><path d="M62.617 0H39.525c-10.29 0-17.413 2.256-23.824 7.552-5.042 4.35-8.051 10.672-8.051 16.912 0 9.614 7.33 19.831 20.913 19.831 1.306 0 2.752-.134 4.028-.253l-.188.457c-.546 1.308-1.063 2.542-1.063 4.468 0 3.75 1.809 6.063 3.558 8.298l.22.283-.391.027c-5.609.384-16.049 1.1-23.675 5.787-9.007 5.355-9.707 13.145-9.707 15.404 0 8.988 8.376 18.06 27.09 18.06 21.76 0 33.146-12.005 33.146-23.863.002-8.771-5.141-13.101-10.6-17.698l-4.605-3.582c-1.423-1.179-3.195-2.646-3.195-5.364 0-2.672 1.772-4.436 3.336-5.992l.163-.165c4.973-3.917 10.609-8.358 10.609-17.964 0-9.658-6.035-14.649-8.937-17.048h7.663a.488.488 0 0 0 .266-.077l6.601-4.15A.5.5 0 0 0 62.617 0zM34.614 91.535c-13.264 0-22.176-6.195-22.176-15.416 0-6.021 3.645-10.396 10.824-12.997 5.749-1.935 13.17-2.031 13.244-2.031 1.257 0 1.889 0 2.893.126 9.281 6.605 13.743 10.073 13.743 16.678-.001 8.414-7.101 13.64-18.528 13.64zm-.125-50.779c-11.132 0-15.752-14.633-15.752-22.468 0-3.984.906-7.042 2.77-9.351 2.023-2.531 5.487-4.166 8.825-4.166 10.221 0 15.873 13.738 15.873 23.233 0 1.498 0 6.055-3.148 9.22-2.117 2.113-5.56 3.532-8.568 3.532zm60.493 4.467H82.814V33.098a.5.5 0 0 0-.5-.5H77.08a.5.5 0 0 0-.5.5v12.125H64.473a.5.5 0 0 0-.5.5v5.304a.5.5 0 0 0 .5.5H76.58V63.73a.5.5 0 0 0 .5.5h5.234c.275 0 .5-.225.5-.5V51.525h12.168a.5.5 0 0 0 .5-.5v-5.302c0-.277-.223-.5-.5-.5z"/></symbol><symbol id="svg-icon__google-plus" viewBox="0 0 56.6934 56.6934"><path d="M19.667 25.787c-.007 1.793 0 3.587.008 5.38 3.006.098 6.02.053 9.027.098-1.326 6.669-10.399 8.832-15.199 4.476-4.936-3.82-4.702-12.2.43-15.749 3.587-2.864 8.688-2.155 12.275.324 1.41-1.304 2.728-2.698 4.001-4.144-2.984-2.382-6.646-4.077-10.542-3.896-8.13-.272-15.606 6.85-15.741 14.98-.52 6.646 3.85 13.165 10.022 15.516 6.149 2.366 14.03.753 17.957-4.77 2.592-3.49 3.15-7.98 2.848-12.2-5.034-.038-10.06-.03-15.086-.015zm29.403-.023c-.015-1.5-.022-3.007-.03-4.506h-4.483c-.015 1.5-.03 2.999-.038 4.506-1.507.008-3.007.015-4.506.03v4.484l4.506.045c.015 1.5.015 3 .03 4.499h4.491c.008-1.5.015-3 .03-4.506 1.507-.015 3.007-.023 4.507-.038v-4.484c-1.5-.015-3.007-.015-4.507-.03z"/></symbol><symbol id="svg-icon__hamburger" viewBox="0 0 22 18"><path d="M0 0h22v4H0V0zm0 7h22v4H0V7zm0 7h22v4H0v-4z"/></symbol><symbol id="svg-icon__heart-thin" viewBox="0 0 30 28"><path d="M21.98 0C19.07 0 16.51 1.806 15 3.954 13.48 1.806 10.92 0 8.01 0 3.38 0 .02 3.786.02 9c-.03 9.907 14.41 18.84 14.56 18.908a.977.977 0 0 0 .86-.015C15.59 27.82 30 18.976 29.97 9c0-5.215-3.36-9-7.99-9zM15 25.81C12.53 24.17 2 16.705 2.02 9.004 2.02 4.88 4.49 2 8.01 2c2.4 0 5.01 1.88 6.07 4.373.15.368.51.608.92.608.39 0 .76-.24.91-.608C16.97 3.88 19.58 2 21.98 2c3.53 0 5.99 2.879 5.99 7.002v.003C27.99 16.71 17.46 24.17 15 25.809z"/></symbol><symbol id="svg-icon__heart" viewBox="0 0 16 15"><path d="M8.01 15c-8.53-6.19-8-10-8-10a4.77 4.77 0 0 1 4.5-5 3.94 3.94 0 0 1 3.5 1.42A3.94 3.94 0 0 1 11.51 0a4.77 4.77 0 0 1 4.5 5s.5 3.81-8 10zm0-2.23c3.63-3.07 5.56-5.38 5.87-6.9a3.51 3.51 0 0 0 .09-.56v-.56a3.35 3.35 0 0 0-.48-1.54 2.88 2.88 0 0 0-.28-.37l-.07-.07a2.62 2.62 0 0 0-.28-.26l-.15-.1a2.39 2.39 0 0 0-.26-.16l-.25-.1-.2-.07a2.1 2.1 0 0 0-.49-.08 1.8 1.8 0 0 0-.42.08L11.01 2c-2.22 0-3 2.5-3 2.5S7.23 2 5.01 2l-.05.05A2 2 0 0 0 4.51 2a2.1 2.1 0 0 0-.49.06l-.2.07-.26.1a2.4 2.4 0 0 0-.26.16l-.15.1a2.57 2.57 0 0 0-.28.26l-.07.07a2.91 2.91 0 0 0-.28.37 3.35 3.35 0 0 0-.48 1.54v.56a3.49 3.49 0 0 0 .09.56C2.45 7.37 4.5 9.78 8 12.75"/></symbol><symbol id="svg-icon__hit" viewBox="0 0 33.98 43.99"><path class="cls-1" d="M19.88.04c.69.25 1.72 3.55 1.75 6.48 0 5.08-1.21 8.05 2.52 11 .43.34-.17-1.73.05-4.15.19-2.06 1.92-4.68 1.86-4.27a9 9 0 0 0 1.18 5.37c5.17 6.44 6.74 12.17 6.74 16.07 0 7.43-7.61 13.45-17 13.45s-17-6-17-13.45c0-2.94 1.19-9.7 3.22-11.92.21-.23-.11.31-.14.84-.08 1.46-.14 4.33 2.42 4.31 3.18 0 1.79-5.8 4.1-10.81 3-6.57 8.7-3.76 10.28-12.74.07-.23-.17-.23.02-.18z"/></symbol><symbol id="svg-icon__instagram" viewBox="0 0 56.693 56.693"><path d="M43.414 4.831H13c-5.283 0-9.581 4.297-9.581 9.58v30.415c0 5.283 4.298 9.58 9.581 9.58h30.415c5.283 0 9.58-4.297 9.58-9.58V14.41c-.001-5.283-4.298-9.579-9.581-9.579zm2.748 5.713l1.096-.004v8.403l-8.375.027-.029-8.402 7.308-.024zM21.131 24.53c1.588-2.197 4.164-3.638 7.076-3.638s5.488 1.441 7.074 3.638a8.677 8.677 0 0 1 1.652 5.088c0 4.811-3.918 8.725-8.727 8.725-4.812 0-8.726-3.914-8.726-8.725a8.683 8.683 0 0 1 1.651-5.088zm27.033 20.295a4.754 4.754 0 0 1-4.75 4.75H13a4.755 4.755 0 0 1-4.751-4.75V24.53h7.4a13.483 13.483 0 0 0-.998 5.088c0 7.473 6.08 13.557 13.556 13.557 7.475 0 13.555-6.084 13.555-13.557 0-1.799-.361-3.516-1-5.088h7.402v20.295z"/></symbol><symbol id="svg-icon__libra" viewBox="0 0 38 28"><path d="M1 20a1 1 0 0 0-1 1v2.06C0 25.79 3.58 28 8 28s8-2.21 8-4.94V21a1 1 0 0 0-1-1H1zm13 3c0 1.35-2.71 3-6 3s-6-1.52-6-2.83V22h12v1zm0-3L9.41 9.91A1.55 1.55 0 0 0 8 9a1.55 1.55 0 0 0-1.41.91L2 20h2l4-9 4 9h2zm9 0a1 1 0 0 0-1 1v2.06c0 2.73 3.58 4.94 8 4.94s8-2.21 8-4.94V21a1 1 0 0 0-1-1H23zm13 3c0 1.35-2.71 3-6 3s-6-1.52-6-2.83V22h12v1zm0-3L31.41 9.91A1.55 1.55 0 0 0 30 9a1.55 1.55 0 0 0-1.41.91L24 20h2l4-9 4 9h2zM34.3 4a1 1 0 0 0-1.25.65 2.06 2.06 0 0 1-2 1.31h-1a8.31 8.31 0 0 1-2.77-1.43 14.36 14.36 0 0 0-5.39-2.51 3 3 0 0 0-5.67 0 14.36 14.36 0 0 0-5.39 2.51A8.31 8.31 0 0 1 8 6H7a2.06 2.06 0 0 1-2-1.31 1.003 1.003 0 0 0-1.91.61 4.09 4.09 0 0 0 4 2.7h1c1.16 0 2.41-.81 3.86-1.75a13.7 13.7 0 0 1 4.35-2.16 3 3 0 0 0 5.58 0 13.7 13.7 0 0 1 4.35 2.16c1.45.94 2.7 1.75 3.86 1.75h1a4.08 4.08 0 0 0 4-2.7A1 1 0 0 0 34.3 4zM19 4a1 1 0 1 1 1-1 1 1 0 0 1-1 1z"/></symbol><symbol id="svg-icon__like" viewBox="0 0 32 32"><path d="M29.826 17.885a5.562 5.562 0 0 0 .942-3.135c0-1.321-.487-2.468-1.461-3.443-.975-.974-2.128-1.461-3.462-1.461H22.46c.615-1.269.923-2.5.923-3.692 0-1.5-.225-2.692-.673-3.577S21.607 1.042 20.748.625C19.889.208 18.921 0 17.844 0c-.654 0-1.231.237-1.731.712-.551.538-.949 1.231-1.192 2.077s-.439 1.657-.587 2.433c-.147.776-.375 1.324-.683 1.644a36.95 36.95 0 0 0-2.058 2.462c-1.295 1.679-2.173 2.673-2.634 2.981H3.69c-.679 0-1.26.241-1.74.721s-.721 1.061-.721 1.74v12.307c0 .68.24 1.259.721 1.74s1.061.721 1.74.721h5.538c.282 0 1.167.256 2.654.769 1.577.551 2.965.971 4.163 1.26s2.413.433 3.644.433h2.481c1.808 0 3.262-.516 4.365-1.548s1.647-2.439 1.635-4.221c.769-.987 1.154-2.128 1.154-3.423 0-.282-.019-.558-.058-.827a5.524 5.524 0 0 0 .731-2.769c0-.462-.058-.904-.173-1.327zM5.789 26.711c-.244.243-.532.366-.865.366s-.622-.122-.865-.366c-.244-.243-.365-.532-.365-.866s.122-.622.365-.865c.244-.244.532-.365.865-.365s.622.122.865.365c.244.244.365.532.365.865s-.122.622-.365.866zm22.105-10.383c-.276.59-.619.891-1.029.904.192.218.353.523.481.913s.192.747.192 1.067c0 .884-.339 1.647-1.019 2.288.231.41.346.853.346 1.327s-.112.946-.337 1.413c-.224.467-.529.804-.913 1.009.064.385.096.744.096 1.077 0 2.141-1.231 3.211-3.693 3.211h-2.326c-1.68 0-3.872-.468-6.577-1.404a100.938 100.938 0 0 0-1.241-.442c-.148-.052-.372-.125-.673-.221s-.545-.167-.731-.212c-.186-.045-.397-.086-.634-.125s-.439-.058-.606-.058h-.615V14.768h.615c.205 0 .433-.058.683-.173s.507-.288.769-.519c.263-.231.509-.458.74-.683s.487-.506.769-.846a37.543 37.543 0 0 0 1.269-1.606c.243-.32.391-.513.442-.577.705-.872 1.199-1.455 1.481-1.75.526-.551.907-1.253 1.144-2.106s.433-1.657.586-2.413c.154-.756.398-1.301.731-1.635 1.23 0 2.051.301 2.461.904s.615 1.532.615 2.788c0 .756-.308 1.785-.923 3.086s-.923 2.324-.923 3.067h6.769c.642 0 1.212.247 1.712.741s.751 1.067.751 1.721c0 .449-.138.968-.414 1.558z"/></symbol><symbol id="svg-icon__linkedIn" viewBox="0 0 24 24"><path d="M6.5 21.5h-5v-13h5v13zM4 6.5C2.5 6.5 1.5 5.3 1.5 4s1-2.4 2.5-2.4c1.6 0 2.5 1 2.6 2.5 0 1.4-1 2.5-2.6 2.5zm11.5 6c-1 0-2 1-2 2v7h-5v-13h5V10s1.6-1.5 4-1.5c3 0 5 2.2 5 6.3v6.7h-5v-7c0-1-1-2-2-2z"/></symbol><symbol id="svg-icon__list" viewBox="0 0 12 10"><path d="M0 0h12v2H0V0zm0 4h12v2H0V4zm0 4h12v2H0V8z"/></symbol><symbol id="svg-icon__minus" viewBox="0 0 14 2"><path d="M0-.01h14v2H0v-2z"/></symbol><symbol id="svg-icon__new" viewBox="0 0 41.99 41.99"><path d="M39.21 24.69l1.1 4.49-3.8 2.12-.91 4.49-4.16.71-2.29 4.11-4.67-1.51-3.44 2.9-3.87-2.85-4.42 1.28-2.25-3.84-4.43-.82-.92-4.72-3.84-2 1-4.42L0 20.92l2.36-3.43-1.26-4.5 3.75-2 .86-4.61 4.53-1.11 2.41-3.9 4.76 1.41 3.55-2.79 3.66 2.95 4.44-1.28 2.12 3.85 4.75.82.92 4.31 3.84 2.37-1.32 4.53 2.62 3.7z"/></symbol><symbol id="svg-icon__odnoklassniki" viewBox="0 0 30 30"><path d="M22 15c-1 0-3 2-7 2s-6-2-7-2a2 2 0 0 0-2 2c0 1 .568 1.481 1 1.734C8.185 19.427 12 21 12 21l-4.25 5.438S7 27.373 7 28a2 2 0 0 0 2 2c1.021 0 1.484-.656 1.484-.656S14.993 23.993 15 24c.007-.007 4.516 5.344 4.516 5.344S19.979 30 21 30a2 2 0 0 0 2-2c0-.627-.75-1.562-.75-1.562L18 21s3.815-1.573 5-2.266c.432-.253 1-.734 1-1.734a2 2 0 0 0-2-2zM15 0a7 7 0 1 0 0 14 7 7 0 0 0 0-14zm0 10.5a3.5 3.5 0 1 1-.001-6.999A3.5 3.5 0 0 1 15 10.5z"/></symbol><symbol id="svg-icon__orders" viewBox="0 0 35 32"><path d="M34.73 9.26l-6 13A3 3 0 0 1 26 24H7a3 3 0 0 1-3-3V6.12L.44 2.56A1.5 1.5 0 1 1 2.56.44L7.12 5H32a3 3 0 0 1 2.73 4.26zM7 21h19l3.69-8H7v8zM32 8H7v2h24.08L32 8zM8 26a3 3 0 1 1-3 3 3 3 0 0 1 3-3zm16 0a3 3 0 1 1-3 3 3 3 0 0 1 3-3z"/></symbol><symbol id="svg-icon__payment" viewBox="0 0 27 22"><path d="M22-.01H4a4 4 0 0 0-4 4v14a4 4 0 0 0 4 4h18a4 4 0 0 0 4-4v-14a4 4 0 0 0-4-4zm-20 2h22v1H2v-1zm22 18H2v-16h22v5h1v6h-1v5z"/><path d="M26 8.28A1.91 1.91 0 0 0 25 8h-8a2 2 0 0 0-2 2v4a2 2 0 0 0 2 2h8a2 2 0 0 0 2-2v-4a2 2 0 0 0-1-1.72zM25 15h-9V9h9v6z"/><path d="M18 10.99h2v2h-2v-2z"/></symbol><symbol id="svg-icon__payment_amex" viewBox="0 0 43 30"><path fill="#2557D6" d="M2.3 0h38.4C42 0 43 1.1 43 2.5v24.9c0 1.4-1 2.5-2.3 2.5H2.3C1 30 0 28.9 0 27.5v-25C0 1.1 1 0 2.3 0z"/><path fill="#FFF" d="M0 14.1h2.1l.5-1.2h1l.4 1.2h4.1v-1l.4 1h2.1l.4-1v1h10v-2h.2c.1 0 .2 0 .2.3v1.8h5.2v-.5c.4.2 1.1.5 1.9.5h2.2l.5-1.2h1l.5 1.2H37V13l.6 1.2H41V6.3h-3.4v.9l-.5-.9h-3.4v.9l-.4-.9h-4.7c-.8 0-1.5.1-2 .5v-.5h-3.2v.5c-.4-.3-.8-.5-1.4-.5H10.3l-.8 2-.8-2H5v.9l-.4-.9H1.5L0 10v4.1zM13 13h-1.2V8.6L10 13H9L7.2 8.6V13H4.8l-.5-1.2H1.8L1.3 13H0l2.2-5.6H4l2 5.3V7.4h2l1.6 3.8L11 7.4h2V13zm-9.1-2.4l-.8-2.3-.8 2.2h1.6v.1zM18 13h-4V7.4h4v1.2h-2.8v1H18v1.1h-2.8v1.1H18V13zm5.7-4.1c0 .9-.5 1.4-.9 1.5.3.1.5.3.6.5.2.3.2.5.2 1V13h-1.2v-.7c0-.3 0-.8-.2-1.1-.2-.2-.4-.2-.9-.2H20v2h-1.2V7.4h2.8c.6 0 1.1 0 1.5.3.3.2.6.6.6 1.2zm-1.6.8c-.2.1-.4.1-.6.1H20V8.6h1.5c.2 0 .4 0 .6.1s.3.3.3.5-.1.4-.3.5zm3.5 3.3h-1.2V7.4h1.2V13zm14.3 0h-1.7l-2.3-4.2V13h-2.5l-.4-1.3h-2.5L30 13h-1.4c-.6 0-1.3-.1-1.8-.6-.4-.5-.6-1.1-.6-2.1 0-.8.1-1.6.7-2.2.4-.4 1-.7 1.8-.7h1.2v1.2h-1.1c-.4 0-.7.1-.9.3-.2.2-.3.7-.3 1.3s.1 1 .3 1.3c.2.2.5.3.8.3h.5l1.7-4.4h1.8l2 5.3V7.4h1.8l2.1 3.9V7.4h1.2V13h.1zm-7.3-2.4l-.8-2.2-.8 2.2h1.6zM43 21.9c-.3.5-.9.7-1.6.7H39v-1.2h2.3c.2 0 .4 0 .5-.1s.1-.2.1-.4-.1-.3-.1-.4c-.1-.1-.2-.1-.4-.1-1.1 0-2.6 0-2.6-1.7 0-.8.5-1.7 1.7-1.7H43v-1.1h-2.2c-.7 0-1.2.2-1.5.5v-.5H36c-.5 0-1.2.1-1.4.5v-.5h-5.9v.5c-.5-.4-1.3-.5-1.6-.5h-3.9v.5c-.4-.4-1.2-.5-1.7-.5H17l-1 1.2-.9-1.2H8.5v7.8h6.4l1-1.2 1 1.2h3.9v-1.8h.4c.5 0 1.1 0 1.7-.3v2.1h3.3v-2h.2c.2 0 .2 0 .2.2v1.8h9.9c.6 0 1.3-.2 1.6-.5v.5h3.1c.7 0 1.3-.1 1.8-.4v-1.4zm-19.6-3c0 1.6-1 1.9-2.1 1.9h-1.5v1.9h-2.3L16 20.8l-1.5 1.9H9.6V17h4.9l1.5 1.8 1.5-1.8h3.9c.9 0 2 .3 2 1.9zm-9.6 2.6h-3v-1.1h2.7v-1.1h-2.7v-1h3l1.3 1.6-1.3 1.6zm4.8.6l-1.9-2.3 1.9-2.2v4.5zm2.7-2.5h-1.6v-1.4h1.6c.4 0 .7.2.7.7.1.5-.2.7-.7.7zm8.2-2.6h4v1.2h-2.8v1h2.8v1.1h-2.8v1.1h2.8v1.2h-4V17zM28 20c.3.1.5.3.6.5.2.3.2.5.2 1v1.1h-1.2v-.7c0-.3 0-.8-.2-1.1-.2-.2-.4-.2-.9-.2h-1.3v2H24V17h2.8c.6 0 1.1 0 1.5.3s.6.6.6 1.2c-.1.9-.6 1.4-.9 1.5zm-.7-.7c-.2.1-.4.1-.6.1h-1.5v-1.3h1.5c.2 0 .4 0 .6.1s.3.3.3.5-.2.5-.3.6zm10.9.4c.2.3.4.6.4 1.2 0 1.2-.7 1.8-1.9 1.8h-2.4v-1.2h2.3c.2 0 .4 0 .5-.1s.1-.2.1-.4-.1-.3-.1-.4c-.1-.1-.2-.1-.4-.1-1.1 0-2.5 0-2.5-1.7 0-.8.5-1.7 1.7-1.7h2.4v1.2h-2.2c-.2 0-.4 0-.5.1s-.2.2-.2.4.1.4.3.4c.1 0 .3.1.5.1h.7c.6 0 1 .1 1.3.4zm4.8-1.5h-2.2c-.2 0-.4 0-.5.1s-.2.2-.2.4.1.4.3.4c.1 0 .3.1.5.1h.7c.7 0 1.1.1 1.4.5l.1.1v-1.6H43z"/></symbol><symbol id="svg-icon__payment_liqpay" viewBox="0 0 43 30"><path fill="#FFF" d="M40.543 30H2.457C1.1 30 0 28.832 0 27.391V2.609C0 1.168 1.1 0 2.457 0h38.086C41.9 0 43 1.168 43 2.609v24.783C43 28.832 41.9 30 40.543 30z"/><g fill="#7AB72B"><path d="M32.717 12.279L35.088 15l-2.37 2.721.657.562L36.235 15l-2.86-3.283-.658.562z"/><path d="M35.6 12.082l2.37 2.721-2.37 2.721.657.562 2.861-3.283-2.861-3.283-.657.562zM7.81 17.321a.989.989 0 0 1-.009.146.348.348 0 0 1-.029.1.15.15 0 0 1-.048.061.119.119 0 0 1-.069.02H5.134a.317.317 0 0 1-.192-.067c-.06-.045-.091-.124-.091-.238v-5.227c0-.023.006-.043.018-.061a.12.12 0 0 1 .062-.041.659.659 0 0 1 .119-.026 1.36 1.36 0 0 1 .48.026.124.124 0 0 1 .062.041.115.115 0 0 1 .018.061v4.881h2.046c.027 0 .05.006.069.02a.152.152 0 0 1 .048.057.3.3 0 0 1 .029.098c.005.041.008.091.008.149zm1.596.214a.117.117 0 0 1-.017.061.117.117 0 0 1-.062.041.651.651 0 0 1-.117.026 1.249 1.249 0 0 1-.183.011 1.186 1.186 0 0 1-.3-.036.121.121 0 0 1-.062-.042.109.109 0 0 1-.018-.061v-5.417c0-.023.006-.044.02-.062a.13.13 0 0 1 .066-.041.703.703 0 0 1 .119-.026c.048-.007.106-.011.174-.011.074 0 .135.004.183.011a.651.651 0 0 1 .117.026.116.116 0 0 1 .062.041.114.114 0 0 1 .017.061v5.418h.001zm6.999.61c0 .067-.004.123-.011.168a.322.322 0 0 1-.033.105.127.127 0 0 1-.049.051.119.119 0 0 1-.053.013.96.96 0 0 1-.285-.072 3.492 3.492 0 0 1-.452-.21 6.484 6.484 0 0 1-.547-.333 4.213 4.213 0 0 1-.565-.459 2.258 2.258 0 0 1-.547.227 2.76 2.76 0 0 1-.767.095c-.429 0-.8-.062-1.113-.187a1.947 1.947 0 0 1-.776-.549 2.351 2.351 0 0 1-.457-.901c-.1-.359-.15-.772-.15-1.237 0-.448.055-.853.163-1.215s.272-.67.489-.925c.218-.254.49-.451.816-.589a2.913 2.913 0 0 1 1.142-.208c.409 0 .768.063 1.078.188.31.125.57.307.781.547.21.24.368.535.474.887.106.352.159.756.159 1.213 0 .235-.014.46-.042.676a3.589 3.589 0 0 1-.132.611 2.838 2.838 0 0 1-.227.532c-.089.16-.197.308-.321.441a4.542 4.542 0 0 0 .965.628c.106.049.188.085.247.107a.4.4 0 0 1 .132.074.23.23 0 0 1 .062.117c.012.053.018.121.019.205zm-1.501-3.336c0-.32-.029-.616-.086-.89a2.025 2.025 0 0 0-.286-.713 1.382 1.382 0 0 0-.536-.473c-.224-.114-.5-.17-.829-.17-.33 0-.606.06-.829.181a1.52 1.52 0 0 0-.545.489c-.14.205-.239.442-.3.713-.062.282-.092.57-.091.859 0 .332.028.636.084.915.056.278.15.518.283.721.132.203.309.362.531.473.222.112.5.168.836.168.332 0 .612-.061.838-.184.225-.122.408-.287.546-.495.143-.221.243-.466.295-.724.06-.274.09-.565.089-.87zm5.6-1.152c0 .282-.047.537-.141.763a1.62 1.62 0 0 1-.403.58 1.814 1.814 0 0 1-.644.371 2.823 2.823 0 0 1-.911.131h-.648v2.032a.096.096 0 0 1-.02.062.13.13 0 0 1-.062.041.628.628 0 0 1-.114.026 1.249 1.249 0 0 1-.183.011c-.074 0-.135-.003-.184-.011a.76.76 0 0 1-.117-.025.121.121 0 0 1-.062-.042.109.109 0 0 1-.018-.061v-5.21c0-.116.031-.199.093-.248a.321.321 0 0 1 .208-.074h1.221c.123 0 .241.005.355.015.113.01.246.032.401.065.154.034.312.096.472.187.161.091.297.205.408.338.112.134.197.289.258.465.06.176.09.37.09.582v.002zm-.798.061c0-.23-.043-.422-.13-.576a.902.902 0 0 0-.322-.344 1.103 1.103 0 0 0-.397-.144 2.67 2.67 0 0 0-.399-.03h-.7v2.264h.683c.229 0 .419-.029.571-.088a1.002 1.002 0 0 0 .615-.613c.054-.143.08-.3.079-.469zm6.231 3.665a.53.53 0 0 1 .037.154c.001.039-.01.07-.033.09a.213.213 0 0 1-.117.039 2.09 2.09 0 0 1-.218.009 2.644 2.644 0 0 1-.218-.006.52.52 0 0 1-.124-.022.144.144 0 0 1-.062-.041.321.321 0 0 1-.037-.065l-.489-1.374h-2.373l-.467 1.357a.217.217 0 0 1-.036.067.17.17 0 0 1-.064.048.407.407 0 0 1-.119.029 1.69 1.69 0 0 1-.201.009c-.085 0-.155-.004-.21-.011-.054-.008-.092-.021-.114-.041-.022-.02-.032-.051-.03-.09a.524.524 0 0 1 .037-.155l1.915-5.244a.237.237 0 0 1 .046-.078.184.184 0 0 1 .083-.048.728.728 0 0 1 .142-.024 3.751 3.751 0 0 1 .452 0 .712.712 0 0 1 .15.024.197.197 0 0 1 .089.051c.021.023.038.05.048.08l1.914 5.243-.001-.001zm-2.456-4.629h-.004l-.984 2.814h1.985l-.997-2.814zm5.225 2.701v2.081a.107.107 0 0 1-.018.061.117.117 0 0 1-.061.041.682.682 0 0 1-.119.026 1.36 1.36 0 0 1-.481-.026.129.129 0 0 1-.064-.041.1.1 0 0 1-.017-.061v-2.081l-1.614-3.184a.735.735 0 0 1-.06-.158c-.008-.037 0-.067.022-.087.022-.02.062-.033.119-.039.057-.006.135-.009.232-.009.088 0 .159.003.213.009a.709.709 0 0 1 .13.024c.032.01.057.025.073.044a.344.344 0 0 1 .046.072l.789 1.623c.074.154.146.316.22.485.073.168.147.339.224.51h.009c.135-.33.277-.657.426-.981l.795-1.632a.224.224 0 0 1 .037-.074.147.147 0 0 1 .066-.046.579.579 0 0 1 .117-.024 2.287 2.287 0 0 1 .439.002.245.245 0 0 1 .126.041c.023.02.032.05.024.087a.602.602 0 0 1-.06.152l-1.613 3.185z"/></g></symbol><symbol id="svg-icon__payment_mastercard" viewBox="0 0 43 30"><path d="M2.3 0h38.4C42 0 43 1.1 43 2.5v24.9c0 1.4-1 2.5-2.3 2.5H2.3C1 30 0 28.9 0 27.5v-25C0 1.1 1 0 2.3 0z"/><path fill="#D9222A" d="M24.9 15c0 6.3-4.6 11.4-10.3 11.4S4.3 21.3 4.3 15 8.9 3.6 14.6 3.6 24.9 8.7 24.9 15"/><path fill="#EE9F2D" d="M28.4 3.6c-2.7 0-5.1 1.1-6.9 3-.4.4-.7.8-1 1.2h2.1c.3.4.5.8.8 1.2h-3.6l-.6 1.2H24c.2.4.3.8.4 1.2h-5.7l-.3 1.2h6.3c.2.8.2 1.6.2 2.4 0 1.3-.2 2.5-.5 3.6h-5.7c.1.4.3.8.4 1.2h4.8l-.6 1.2h-3.6c.2.4.5.8.8 1.2h2.1c-.3.4-.7.8-1 1.2 1.8 1.8 4.2 3 6.9 3 5.7 0 10.3-5.1 10.3-11.4-.1-6.3-4.7-11.4-10.4-11.4"/><path d="M37.3 21.4c0-.2.1-.4.3-.4s.3.2.3.4-.1.4-.3.4-.3-.2-.3-.4zm.4.3c.1 0 .3-.1.3-.3 0-.2-.1-.3-.3-.3-.1 0-.3.1-.3.3 0 .1.1.3.3.3zm-.1-.2l-.1-.3h.2v.1s0 .1-.1.1l.1.1h-.1v-.1.1zm0-.1c.1 0 .1 0 0 0 .1-.1.1-.1 0 0 .1-.1.1-.1 0 0 .1-.1.1-.1 0 0zm-25.4-5.1H12c-.6 0-1 .2-1 .7 0 .3.2.5.4.5.4-.1.8-.6.8-1.2zm.8 2.1h-.9v-.5c-.3.4-.7.6-1.2.6-.6 0-1-.5-1-1.3 0-1.1.7-1.8 2-1.8h.5v-.3c0-.3-.2-.4-.7-.4s-1 .1-1.2.2c0-.1.2-1.1.2-1.1.6-.2.9-.2 1.3-.2 1 0 1.5.5 1.5 1.4 0 .2 0 .5-.1.9-.2.6-.4 2.1-.4 2.5zm-3.6 0H8.3l.7-4.5-1.4 4.5h-.8L6.7 14 6 18.4H5l.9-5.8h1.6l.1 3.2 1-3.2h1.8l-1 5.8m20.4-2.1h-.2c-.6 0-1 .2-1 .7 0 .3.2.5.4.5.4-.1.8-.6.8-1.2zm.8 2.1h-.9v-.5c-.3.4-.7.6-1.2.6-.6 0-1-.5-1-1.3 0-1.1.7-1.8 2-1.8h.5v-.3c0-.3-.2-.4-.7-.4s-1 .1-1.2.2c0-.1.2-1.1.2-1.1.6-.2.9-.2 1.3-.2 1 0 1.5.5 1.5 1.4 0 .2 0 .5-.1.9-.2.6-.4 2.1-.4 2.5zM18 18.3c-.3.1-.5.2-.8.2-.6 0-.9-.4-.9-1 0-.2.1-.8.2-1.3.1-.4.5-3.2.5-3.2h1l-.1.7h.7l-.2 1.1h-.7c-.1.9-.3 2-.3 2.2s.1.3.4.3h.3l-.1 1m3.4-.1c-.4.1-.7.2-1.1.2-1.2 0-1.9-.7-1.9-2.1 0-1.6.8-2.8 1.9-2.8.9 0 1.5.7 1.5 1.7 0 .3 0 .7-.1 1.2h-2.2c-.1.7.3 1 1 1 .4 0 .8-.1 1.2-.3l-.3 1.1zm-.7-2.8c0-.1.1-.8-.5-.8-.4 0-.6.3-.7.8h1.2zm-7-.3c0 .6.3 1 .9 1.3.4.3.4.4.4.6 0 .3-.2.4-.6.4-.3 0-.6-.1-1-.2 0 0-.1 1-.2 1.1.3.1.5.1 1.2.1 1.2 0 1.7-.5 1.7-1.6 0-.6-.2-1-.8-1.3-.5-.2-.5-.3-.5-.5 0-.3.2-.4.5-.4.2 0 .5 0 .8.1l.2-1.1c-.3-.1-.7-.1-1-.1-1.2 0-1.6.8-1.6 1.6"/><path d="M26.8 13.7c.3 0 .6.1 1 .3l.2-1.3c-.2-.1-.7-.5-1.2-.5-.7 0-1.4.4-1.8 1.1-.6-.2-.9.2-1.2.7l-.3.1v-.5h-1c-.1 1.5-.4 2.9-.6 4.4l-.1.3h1.1c.2-1.3.3-2.2.4-2.8l.4-.3c.1-.3.3-.3.7-.3-.1.3-.1.6-.1 1 0 1.5.7 2.5 2 2.5.3 0 .6 0 1-.2l.2-1.3c-.4.2-.7.3-.9.3-.6 0-1-.5-1-1.4-.2-1.2.4-2.1 1.2-2.1"/><path fill="#FFF" d="M9.8 18H8.6l.6-4.5L7.9 18h-.8L7 13.6 6.3 18h-1l.9-5.8h1.6v3.6l1.1-3.6h1.7L9.8 18"/><path d="M36.3 12.6l-.3 1.6c-.3-.4-.6-.8-1.1-.8-.6 0-1.1.5-1.4 1.2-.5-.1-1-.3-1-.3 0-.4.1-.6 0-.7h-1c-.1 1.5-.4 2.9-.6 4.4l.1.4h1.1c.2-1.1.3-2 .4-2.7.4-.4.6-.7 1-.7-.2.5-.3 1-.3 1.5 0 1.2.5 2 1.3 2 .4 0 .7-.2 1-.5l-.1.4h1.1l.9-5.8h-1.1zm-1.4 4.7c-.4 0-.6-.3-.6-.9 0-.9.4-1.6.9-1.6.4 0 .6.3.6.9 0 .9-.4 1.6-.9 1.6z"/><path fill="#FFF" d="M12.5 15.9h-.2c-.6 0-1 .2-1 .7 0 .3.2.5.4.5.5 0 .8-.5.8-1.2zm.8 2.1h-.9v-.5c-.3.4-.7.6-1.2.6-.6 0-1-.5-1-1.3 0-1.1.7-1.8 2-1.8h.5v-.3c0-.3-.2-.4-.7-.4s-1 .1-1.2.2c0-.1.2-1.1.2-1.1.6-.2.9-.3 1.3-.3 1 0 1.5.5 1.5 1.4 0 .2 0 .5-.1.9-.1.8-.3 2.3-.4 2.6zm15-5.6l-.2 1.3c-.4-.2-.7-.3-1-.3-.8 0-1.4.9-1.4 2.2 0 .9.4 1.4 1 1.4.3 0 .6-.1.9-.3l-.2 1.3c-.4.1-.7.2-1 .2-1.2 0-2-1-2-2.5 0-2.1 1-3.5 2.5-3.5.7-.1 1.2.1 1.4.2m1.8 3.5h-.2c-.6 0-1 .2-1 .7 0 .3.2.5.4.5.5 0 .8-.5.8-1.2zm.8 2.1H30v-.5c-.3.4-.7.6-1.2.6-.6 0-1-.5-1-1.3 0-1.1.7-1.8 2-1.8h.5v-.3c0-.3-.2-.4-.7-.4s-1 .1-1.2.2c0-.1.2-1.1.2-1.1.6-.2.9-.3 1.3-.3 1 0 1.5.5 1.5 1.4 0 .2 0 .5-.1.9-.1.8-.3 2.3-.4 2.6zm-12.6-.1c-.3.1-.5.2-.8.2-.6 0-.9-.4-.9-1 0-.2.1-.8.2-1.3.1-.4.5-3.2.5-3.2h1.1l-.1.7h.6l-.2 1.1h-.6c-.1.9-.3 2-.3 2.2 0 .2.1.3.4.3h.3l-.2 1m3.4 0c-.4.1-.7.2-1.1.2-1.2 0-1.9-.7-1.9-2.1 0-1.6.8-2.8 1.9-2.8.9 0 1.5.7 1.5 1.7 0 .3 0 .7-.1 1.2h-2.2c-.1.7.3 1 1 1 .4 0 .8-.1 1.2-.3l-.3 1.1zm-.6-2.8c0-.1.1-.8-.5-.8-.4 0-.6.3-.7.8h1.2zm-7.1-.3c0 .6.3 1 .9 1.3.5.2.5.3.5.5 0 .3-.2.4-.6.4-.3 0-.6-.1-1-.2 0 0-.1 1-.2 1.1.3.1.5.1 1.2.1 1.2 0 1.7-.5 1.7-1.6 0-.6-.2-1-.8-1.3-.5-.2-.5-.3-.5-.5 0-.3.2-.4.5-.4.2 0 .5 0 .8.1l.2-1.1c-.3-.1-.7-.1-1-.1-1.3.1-1.7.8-1.7 1.7M36.8 18h-1.1l.1-.4c-.3.4-.6.5-1 .5-.8 0-1.3-.8-1.3-2 0-1.6.8-2.9 1.8-2.9.4 0 .8.2 1.1.6l.2-1.7h1.1l-.9 5.9zm-1.6-1.1c.5 0 .9-.7.9-1.6 0-.6-.2-.9-.6-.9-.5 0-.9.7-.9 1.6 0 .6.2.9.6.9zm-3.3-3.6c-.1 1.5-.4 2.9-.6 4.4v.3h1.1c.4-2.9.5-3.4 1.1-3.4.1-.6.3-1.1.4-1.4-.5-.1-.7.2-1.1.7 0-.2.1-.5.1-.7h-1m-9.2.1c-.1 1.5-.4 2.9-.6 4.4v.3h1.1c.4-2.9.5-3.4 1.1-3.4.1-.6.3-1.1.4-1.4-.5-.1-.7.2-1.1.7 0-.2.1-.5.1-.7h-1m14.6 4.4c0-.2.1-.4.3-.4s.3.2.3.4-.1.4-.3.4c-.1 0-.3-.2-.3-.4zm.4.3c.1 0 .3-.1.3-.3 0-.2-.1-.3-.3-.3-.1 0-.3.1-.3.3s.1.3.3.3zm-.1-.1l-.1-.3h.2v.1s0 .1-.1.1l.1.1h-.1v-.1.1zm0-.2c.1 0 .1 0 0 0 .1 0 .1 0 0 0 .1 0 .1-.1 0 0 .1-.1.1-.1 0 0z"/></symbol><symbol id="svg-icon__payment_paypal" viewBox="0 0 43 30"><path fill="#FFF" d="M40 0H3C1.4 0 0 1.5 0 3.3v23.4C0 28.5 1.4 30 3 30h37c1.7 0 3-1.5 3-3.3V3.3C43 1.5 41.6 0 40 0z"/><path fill="#003087" d="M9.3 10.2c-.5-.4-1.1-.5-1.8-.5H4.6c-.2 0-.4.1-.4.4L3 18c0 .1 0 .2.1.2 0 .1.1.1.2.1h1.4c.2 0 .3-.1.3-.3l.3-2.2c0-.1.1-.2.1-.3.1-.1.2-.1.3-.1h.9c1 0 1.8-.3 2.4-1 .7-.6 1-1.4 1-2.6 0-.7-.3-1.3-.7-1.6zm-1.5 2.4c-.1.5-.2.8-.5.9-.3.1-.6.2-1.1.2h-.6l.4-2.1c0-.1.1-.2.2-.2h.3c.5 0 .8.1 1 .2.3.2.4.5.3 1z"/><path fill="#009CDE" d="M39.7 9.7h-1.3c-.1 0-.2.1-.2.2L37 18c0 .1 0 .1.1.2 0 .1.1.1.2.1h1.2c.2 0 .4-.1.4-.4l1.2-8c-.1-.2-.2-.2-.4-.2z"/><path fill="#003087" d="M23.6 12.8c0-.1 0-.1-.1-.2 0-.1-.1-.1-.2-.1H22c-.1 0-.2.1-.3.2l-1.9 3.1-.8-3c-.1-.2-.2-.3-.4-.3h-1.4c-.1 0-.1 0-.2.1 0 .1-.1.1-.1.2 0 0 .1.4.4 1.2.2.7.5 1.5.8 2.4.3.9.4 1.3.4 1.4-1 1.5-1.5 2.2-1.5 2.4 0 .2.1.3.2.3h1.4c.1 0 .2-.1.3-.2l4.6-7.2c.1-.2.1-.2.1-.3z"/><path fill="#009CDE" d="M36.5 12.5h-1.4c-.2 0-.3.2-.3.6-.3-.5-.9-.8-1.7-.8-.9 0-1.6.4-2.2 1.1-.6.8-.9 1.6-.9 2.5 0 .8.2 1.4.6 1.8.4.5 1 .7 1.7.7.3 0 .7-.1 1.1-.2.4-.2.6-.4.8-.6v.4c0 .2.1.3.2.3h1.2c.2 0 .4-.1.4-.4l.7-5.1c0-.1 0-.2-.1-.2.1 0 0-.1-.1-.1zm-2.3 3.9c-.3.3-.7.5-1.1.5-.3 0-.6-.1-.8-.3-.2-.2-.3-.5-.3-.9 0-.5.2-.9.5-1.2s.7-.5 1.1-.5c.3 0 .6.1.8.3s.3.5.3.9c0 .5-.2.9-.5 1.2z"/><path fill="#003087" d="M16.1 12.5h-1.4c-.2 0-.3.2-.3.6-.3-.5-.9-.8-1.7-.8-.9 0-1.6.4-2.2 1.1-.6.7-.9 1.5-.9 2.5 0 .8.2 1.4.6 1.8.4.5 1 .7 1.7.7.3 0 .7-.1 1-.2.4-.2.6-.4.9-.6 0 .2-.1.3-.1.4 0 .2.1.3.2.3h1.2c.2 0 .4-.1.4-.4l.7-5.1c0-.1 0-.2-.1-.2.1 0 0-.1 0-.1zm-2.4 3.9c-.3.3-.7.5-1.1.5-.3 0-.6-.1-.8-.3-.2-.2-.3-.5-.3-.9 0-.5.2-.9.5-1.2s.7-.5 1.1-.5c.3 0 .6.1.8.3s.3.5.3.9c0 .5-.2.9-.5 1.2z"/><path fill="#009CDE" d="M29.8 10.2c-.5-.3-1.1-.5-1.8-.5h-2.9c-.2 0-.4.1-.4.4l-1.2 8c0 .1 0 .2.1.2 0 .1.1.1.2.1h1.5c.1 0 .2-.1.3-.3l.3-2.3c0-.1.1-.2.1-.3.1-.1.2-.1.3-.1h.9c1 0 1.8-.3 2.4-1 .6-.6.9-1.5.9-2.6 0-.7-.3-1.3-.7-1.6zm-1.9 3.2c-.3.2-.7.3-1.2.3h-.6l.3-2.1c0-.1.1-.2.2-.2h1c.2 0 .3.1.5.2.1.1.2.3.2.6 0 .6-.1 1-.4 1.2z"/></symbol><symbol id="svg-icon__payment_privatbank" viewBox="0 0 43 30"><path fill="#FFF" d="M40.543 30H2.457C1.1 30 0 28.832 0 27.391V2.609C0 1.168 1.1 0 2.457 0h38.086C41.9 0 43 1.168 43 2.609v24.783C43 28.832 41.9 30 40.543 30z"/><path fill="#62AB36" d="M11.979 5.217v9.537c7.676 0 9.457 2.357 9.457 10.028h8.971V5.217H11.979zM26.721 20.87h-1.508c0-5.423-4.188-10.071-9.549-10.071V9.13h11.057v11.74z"/><path fill="#020001" d="M11.979 16.957h7.371v7.826h-7.371z"/></symbol><symbol id="svg-icon__payment_visa" viewBox="0 0 43 30"><path fill="#0E4595" d="M2.3 0h38.4C42 0 43 1.1 43 2.5v24.9c0 1.4-1 2.5-2.3 2.5H2.3C1 30 0 28.9 0 27.5v-25C0 1.1 1 0 2.3 0z"/><path fill="#FFF" d="M15.9 21.3l1.9-12.5h3.1L19 21.3h-3.1zM30.1 9.1c-.6-.3-1.6-.5-2.7-.5-3 0-5.2 1.7-5.2 4.1 0 1.8 1.5 2.8 2.7 3.4 1.2.6 1.6 1 1.6 1.5 0 .8-1 1.2-1.8 1.2-1.2 0-1.9-.2-2.9-.7l-.5-.1-.4 2.8c.7.3 2 .6 3.4.7 3.2 0 5.3-1.7 5.3-4.3 0-1.4-.8-2.5-2.6-3.4-1.1-.6-1.7-1-1.7-1.5s.6-1.1 1.8-1.1c1 0 1.7.2 2.3.5l.3.1.4-2.7m7.8-.3h-2.4c-.7 0-1.3.2-1.6 1l-4.5 11.4h3.2s.5-1.5.6-1.9h3.9c.1.4.4 1.9.4 1.9h2.8L37.9 8.8zm-3.7 8.1c.3-.7 1.2-3.5 1.2-3.5s.3-.7.4-1.2l.2 1.1s.6 3 .7 3.6h-2.5zM13.4 8.8l-3 8.5-.4-1.7c-.6-2-2.3-4.2-4.2-5.2l2.7 10.9h3.2l4.8-12.4h-3.1"/><path fill="#F2AE14" d="M7.6 8.8h-5v.3c3.8 1 6.4 3.5 7.4 6.5L9 9.9c-.2-.8-.8-1.1-1.4-1.1"/></symbol><symbol id="svg-icon__payment_webmoney" viewBox="0 0 120 60.000002"><path d="M20.243 14.917c2.39 0 4.664.547 6.705 1.527.32.144.642.317.96.49l-1.399 1.239-2.097-2.161-3.614 3.17-2.128-2.277-6.646 5.907 4.255 4.639-1.661 1.44 4.198 4.64-1.661 1.439 6.004 6.598 3.554-3.227 3.091 3.459c-.612.46-1.283.923-2.01 1.326a15.37 15.37 0 0 1-7.521 1.957C11.849 45.083 5 38.313 5 29.987c-.03-8.27 6.82-15.07 15.243-15.07zm-2.798 14.147l3.643-3.227 3.266 3.602-3.645 3.227zm2.595 6.224l3.614-3.256 3.293 3.602-3.643 3.227zm-5.188-12.36l3.643-3.228 3.264 3.602-3.643 3.227zm6.674-1.73l2.71-2.42 2.45 2.68-2.711 2.448zm4.839 11.093l2.71-2.42 2.449 2.708L28.812 35zm2.39 5.447l2.71-2.421 2.447 2.68-2.71 2.448zm1.107-12.449l1.807-1.613 1.632 1.787-1.807 1.613zm-2.332-5.33l1.807-1.642 1.633 1.815-1.808 1.613zm4.635 10.661l1.806-1.613 1.662 1.786-1.836 1.614zm-8.132-4.005l2.71-2.42 2.449 2.679-2.71 2.42zm18.855-4.032h1.464l2.287 8.743h.115l1.677-8.743h1.925L47.69 34.3h-1.777l-2.235-8.248h-.116L41.391 34.3h-1.775l-2.664-11.718h1.841l1.843 8.743h.115zm9.804 6.73h3.766c-.082-1.736-.921-2.43-1.809-2.43-1.003 0-1.777.778-1.957 2.43m5.081 3.107v1.257c-.74.43-1.726.76-2.91.76-2.763 0-3.898-1.719-3.898-4.33 0-2.513 1.266-4.331 3.733-4.331 2.056 0 3.323 1.34 3.323 4.033v.611h-5.362c0 1.983.806 2.86 2.5 2.86.888 0 1.71-.315 2.614-.86m4.073.692c.526.231 1.102.265 1.514.265 1.217 0 2.137-.761 2.137-3.438 0-2.099-.756-2.776-1.858-2.776-.658 0-1.135.182-1.793.545zm.017-6.627c.492-.263 1.331-.612 2.22-.612 2.039 0 3.141 1.422 3.141 4.066 0 3.091-1.48 4.595-3.864 4.595-.872 0-2.22-.28-3.208-.81V22.187l1.711-.413v4.71zm13.125 7.81h-1.052l-3.356-8.298h-.147v8.297h-1.48V22.576h1.99l3.683 9.238h.083l3.518-9.238h2.04v11.718h-1.775V25.8h-.149zm12.536-4.188c0-2.231-.903-3.173-2.022-3.173-1.085 0-2.023.942-2.023 3.173 0 2.264.856 3.172 2.023 3.172 1.167 0 2.022-.908 2.022-3.172m-5.771 0c0-2.894 1.579-4.331 3.75-4.331 2.17 0 3.75 1.437 3.75 4.33 0 2.826-1.497 4.331-3.75 4.331-2.254 0-3.75-1.505-3.75-4.33m8.8-3.107c.74-.447 2.303-1.224 4.194-1.224 1.973 0 2.712.777 2.712 2.479v5.984h-1.71v-5.604c0-1.305-.64-1.536-1.48-1.536-.656 0-1.496.298-2.006.595v6.545h-1.71zm10.526 2.312h3.766c-.08-1.735-.92-2.428-1.809-2.428-1.003 0-1.775.777-1.957 2.428m5.081 3.108v1.257c-.74.43-1.726.76-2.91.76-2.762 0-3.897-1.719-3.897-4.33 0-2.513 1.265-4.331 3.733-4.331 2.056 0 3.323 1.34 3.323 4.033v.611h-5.362c0 1.983.806 2.86 2.5 2.86.887 0 1.71-.315 2.613-.86m7.08-6.644H115l-2.977 8.263c-.823 2.28-1.825 3.47-3.716 3.47v-1.354c1.119 0 1.808-.893 2.204-2.116l-3.158-8.263h1.81l2.104 6.082h.099z" fill="#106db3"/></symbol><symbol id="svg-icon__percentage-discount" viewBox="0 0 320.648 320.648"><path d="M139.219 124.494c12.369-13.416 19.184-31.412 19.184-50.678C158.403 37.134 132.202 0 82.116 0 58.807 0 39.143 8.006 25.247 23.152 12.938 36.57 6.161 54.562 6.161 73.816c0 36.686 26.09 73.818 75.955 73.818 23.396.001 43.146-7.999 57.103-23.14zM82.116 34.322c27.443 0 39.941 20.486 39.941 39.52 0 10.354-3.484 19.939-9.816 26.986-7.064 7.871-17.33 12.033-29.68 12.033-28.137 0-40.955-20.484-40.955-39.516 0-19.421 12.528-39.023 40.51-39.023zm182.158-5.846c-4.539.082-10.736 2.912-13.772 6.287L25.186 285.275c-3.035 3.377-.885 8.111 3.654 8.111h29.49c4.539 0 10.73-2.768 13.76-6.148L296.013 36.777c3.029-3.383 2.828-8.887-4.672-8.885l-27.067.584zm-24.627 147.346c-22.859 0-42.15 7.858-55.783 22.715-12.074 13.158-18.726 30.811-18.726 49.699 0 35.984 25.594 72.412 74.51 72.412 22.957 0 42.326-7.85 56.02-22.701 12.135-13.162 18.818-30.816 18.818-49.711-.001-35.984-25.706-72.414-74.839-72.414zm.442 111.596c-27.375 0-39.848-20.557-39.848-39.648 0-10.397 3.482-20.018 9.809-27.092 7.053-7.894 17.287-12.066 29.598-12.066 27.377 0 39.844 20.553 39.844 39.65 0 10.395-3.483 20.018-9.805 27.092-7.055 7.892-17.29 12.064-29.598 12.064z"/></symbol><symbol id="svg-icon__phone-big" viewBox="0 0 32 32"><path d="M23.5 32a7.33 7.33 0 0 1-2.45-.42A33.71 33.71 0 0 1 .34 10.33a7.35 7.35 0 0 1 2.53-8.1L4.5 1a5 5 0 0 1 7.48 1.69l2.67 5.18a3.49 3.49 0 0 1-.53 4l-.55.6a2 2 0 0 0-.3 2.21 9.45 9.45 0 0 0 4.09 4.09 2 2 0 0 0 2.21-.3l.61-.55a3.56 3.56 0 0 1 4-.54l5.18 2.66a5 5 0 0 1 1.28 8l-1.8 1.82A7.4 7.4 0 0 1 23.5 32zM7.5 3a2 2 0 0 0-1.21.41l-1.58 1.2a4.35 4.35 0 0 0-1.5 4.8 30.69 30.69 0 0 0 18.85 19.35 4.44 4.44 0 0 0 4.55-1l1.8-1.82a2 2 0 0 0-.51-3.18L22.72 20a.54.54 0 0 0-.56.08l-.61.56a5 5 0 0 1-5.62.75 12.42 12.42 0 0 1-5.38-5.38 5 5 0 0 1 .75-5.61l.55-.6a.49.49 0 0 0 .08-.56L9.26 4.06A2 2 0 0 0 7.5 3z"/></symbol><symbol id="svg-icon__phone-fill" viewBox="0 0 13 13"><path class="st0" d="M12.1.5C11.6 0 10-.1 10 .2S8.6 3.5 8.6 3.8c0 .2.9 1.2 1.2 1.5.3.2-1.8 2.6-1.9 2.7 0 0-2.4 2.1-2.7 1.9C5 9.6 4 8.6 3.7 8.6 3.4 8.6.4 10 .1 10c-.3 0-.2 1.6.3 2.1.4.4 2.7 2.1 6.7-.8.4-.3 1.1-.8 2.2-1.9 1.1-1.1 1.6-1.8 1.9-2.2 3-4 1.4-6.3.9-6.7z"/></symbol><symbol id="svg-icon__phone-headset-fill" viewBox="0 0 512 512"><path d="M106 211.989c-24.814 0-45 20.186-45 45v120c0 24.814 20.186 45 45 45s45-20.186 45-45v-120c0-24.814-20.186-45-45-45zm300 0c-24.814 0-45 20.186-45 45v120c0 18.891 11.732 35.035 28.264 41.697a44.902 44.902 0 0 1-31.567 31.567c-6.661-16.533-22.806-28.264-41.697-28.264-24.814 0-45 20.186-45 45s20.186 45 45 45c19.999 0 36.791-13.2 42.634-31.278 31.199-5.343 55.745-29.888 61.088-61.088C437.8 413.781 451 396.988 451 376.989v-120c0-24.814-20.186-45-45-45z"/><path d="M415.284 96.088c7.735-19.853.603-41.868-16.696-53.52-83.965-56.733-201.24-56.748-285.176-.015-17.334 11.701-24.43 33.709-16.692 53.53-33.129 33.532-55.168 79.254-62.585 125.463 2.684-1.179 5.279-2.523 8.073-3.481 7.383-12.052 18.215-21.517 30.881-27.865 9.315-25.47 24.016-51.774 43.061-71.546 15.891 9.202 33.93 7.726 47.624-1.511 54.316-36.709 130.166-36.68 184.453 0 14.718 9.926 33.186 9.829 47.628 1.516 19.043 19.77 33.745 46.072 43.057 71.54 12.665 6.348 23.498 15.813 30.881 27.865 2.794.958 5.389 2.302 8.073 3.481-7.416-46.207-29.453-91.927-62.582-125.457zM482 257.372v119.235c18.104-13.705 30-35.213 30-59.617s-11.896-45.913-30-59.618zM0 316.989c0 24.404 11.896 45.912 30 59.617V257.372c-18.104 13.705-30 35.213-30 59.617z"/></symbol><symbol id="svg-icon__phone-headset" viewBox="0 0 512 512"><path d="M482 257.016v-.041c0-32.426-6.694-63.929-19.898-93.636-11.082-24.933-26.688-47.849-45.478-66.899 6.946-18.677.794-40.865-17.032-52.893-85.888-58.03-201.299-58.029-287.177-.005C94.62 55.551 88.412 77.715 95.376 96.44c-18.79 19.05-34.396 41.965-45.478 66.899C36.694 193.046 30 224.549 30 256.975v.041c-18.204 13.697-30 35.475-30 59.959 0 36.991 26.925 67.792 62.202 73.885 5.866 18.037 22.829 31.115 42.798 31.115 24.813 0 45-20.187 45-45v-120c0-24.813-20.187-45-45-45-19.969 0-36.931 13.078-42.798 31.115-.578.1-1.157.197-1.73.31 3.14-46.732 22.403-90.706 54.249-123.829 14.864 8.778 33.525 8.364 48.056-1.448 54.018-36.49 132.431-36.49 186.456.006 14.837 10.008 33.557 9.961 48.047 1.441 31.846 33.124 51.109 77.098 54.249 123.83-.573-.113-1.152-.21-1.73-.31-5.866-18.037-22.829-31.115-42.798-31.115-24.813 0-45 20.187-45 45v120c0 18.957 11.788 35.201 28.414 41.819-4.177 15.328-16.268 27.418-31.595 31.595-6.618-16.626-22.862-28.414-41.819-28.414-24.813 0-45 20.187-45 45s20.187 45 45 45c19.969 0 36.931-13.078 42.798-31.115 31.115-5.374 55.713-29.973 61.087-61.088 13.661-4.443 24.469-15.252 28.913-28.913C485.075 384.767 512 353.966 512 316.975c0-24.484-11.796-46.262-30-59.959zm-392-.041c0-8.271 6.729-15 15-15s15 6.729 15 15v120c0 8.271-6.729 15-15 15s-15-6.729-15-15v-120zM60 359.404c-17.461-6.19-30-22.872-30-42.429 0-19.422 12.436-36.202 30-42.43v84.859zm326.836-270.18c-4.626 6.85-13.969 8.659-20.819 4.039C334.785 72.166 295.714 60.547 256 60.547s-78.785 11.619-110.014 32.715c-6.911 4.665-16.211 2.789-20.822-4.037-4.6-6.808-2.901-16.135 4.039-20.82 37.921-25.621 82.355-38.431 126.795-38.431 44.438 0 88.882 12.812 126.806 38.435 6.871 4.637 8.674 13.946 4.032 20.815zM317 481.975c-8.271 0-15-6.729-15-15s6.729-15 15-15 15 6.729 15 15-6.729 15-15 15zm105-105c0 8.271-6.729 15-15 15s-15-6.729-15-15v-120c0-8.271 6.729-15 15-15s15 6.729 15 15v120zm30-17.57v-84.859c17.461 6.191 30 22.873 30 42.43s-12.539 36.238-30 42.429z"/></symbol><symbol id="svg-icon__phone-small" viewBox="0 0 16 15"><path d="M15.66 9.57L11.9 7.12a.84.84 0 0 0-1.13.21l-.46.64a.84.84 0 0 1-1.22.15c-.21-.18-1.39-1.07-1.58-1.24a.84.84 0 0 1 .11-1.33.84.84 0 0 0 .32-1l-1.67-4a.84.84 0 0 0-.82-.51h-.82a7.1 7.1 0 0 0-3.51 1.11 3.74 3.74 0 0 0-1.1 2.78c0 1.43.51 4.32 4.29 7.5 2.64 2.21 4.88 3.6 6.36 3.6h.31a6.07 6.07 0 0 0 2.36-.52h.11a4.71 4.71 0 0 0 2.32-4zm-2.95 3a4.39 4.39 0 0 1-1.75.43c-.79 0-2.26-.51-5.38-3.14-4.57-3.83-3.6-6.88-3.24-7.17a4.12 4.12 0 0 1 1.74-.6.83.83 0 0 1 .89.5l.45 1.06a.84.84 0 0 1-.33 1l-.51.32a.84.84 0 0 0-.29 1.13c.82 1.46 4.08 4 5.24 4.8a.83.83 0 0 0 1.17-.19l.56-.77a.84.84 0 0 1 1.14-.21l.86.56a.84.84 0 0 1 .31 1 2.66 2.66 0 0 1-.86 1.28z"/></symbol><symbol id="svg-icon__phone-telephone" viewBox="0 0 612 612"><path d="M586.923 256.013c-7.959-8.24-16.655-13.074-24.53-15.916 10.798-62.807 8.812-97.901-246.643-178.322C55.771-20.07 26.688 13.85 5.274 81.869L1.622 93.471c-5.794 18.406 4.43 38.025 22.836 43.82l83.405 26.257c18.407 5.794 38.025-4.43 43.82-22.836l3.652-11.602c16.587-52.69 97.773-28.905 143.76-14.428 45.986 14.477 126.155 41.49 109.568 94.18l-3.653 11.601c-5.794 18.406 4.43 38.025 22.836 43.82l83.405 26.257c18.406 5.795 38.025-4.429 43.82-22.835l2.369-8.038c4.933 2.036 10.229 5.149 15.123 10.215 17.553 18.182 23.378 53.308 16.842 101.589-11.335 83.657-44.21 113.537-79.221 123.481v-14.553c0-14.775-3.693-29.4-11.181-42.179-34.94-59.797-84.556-112.856-147.598-159.626v-35.34c0-2.745-2.246-4.992-4.991-4.992h-51.862a4.975 4.975 0 0 0-4.992 4.992v35.139h-59.199v-35.139a5.007 5.007 0 0 0-4.992-4.992H173.46a5.007 5.007 0 0 0-4.992 4.992v35.139C105.326 325.264 55.661 378.322 20.67 438.22c-7.487 12.778-11.18 27.403-11.18 42.177v32.894c0 46.87 37.985 84.855 84.854 84.855h330.984c46.136 0 83.581-36.824 84.745-82.679 56.115-13.143 87.95-58.928 99.111-141.316 7.497-55.335.005-95.082-22.261-118.138zM346.544 481.271l-33.304-11.858c3.533-7.12 5.57-15.115 5.57-23.606 0-29.35-23.809-53.159-53.208-53.159-29.35 0-53.209 23.81-53.209 53.159 0 29.4 23.859 53.21 53.209 53.21a52.961 52.961 0 0 0 29.386-8.859l18.266 30.026c-13.76 8.835-30.087 14.022-47.652 14.022-48.817 0-88.349-39.582-88.349-88.398 0-48.767 39.533-88.349 88.349-88.349s88.399 39.583 88.399 88.349c0 12.621-2.69 24.6-7.457 35.463z"/></symbol><symbol id="svg-icon__pinterest" viewBox="0 0 24 24"><path d="M12.14.5C5.86.5 2.7 5 2.7 8.75c0 2.27.86 4.3 2.7 5.05.3.12.57 0 .66-.33l.27-1.06c.1-.32.06-.44-.2-.73-.52-.62-.86-1.44-.86-2.6 0-3.33 2.5-6.32 6.5-6.32 3.55 0 5.5 2.17 5.5 5.07 0 3.8-1.7 7.02-4.2 7.02-1.37 0-2.4-1.14-2.07-2.54.4-1.68 1.16-3.48 1.16-4.7 0-1.07-.58-1.98-1.78-1.98-1.4 0-2.55 1.47-2.55 3.42 0 1.25.43 2.1.43 2.1l-1.7 7.2c-.5 2.13-.08 4.75-.04 5 .02.17.22.2.3.1.14-.18 1.82-2.26 2.4-4.33.16-.58.93-3.63.93-3.63.45.88 1.8 1.65 3.22 1.65 4.25 0 7.13-3.87 7.13-9.05C20.5 4.15 17.18.5 12.14.5z"/></symbol><symbol id="svg-icon__plus" viewBox="0 0 14 14"><path d="M0 5.99h14v2H0v-2z"/><path d="M6-.01h2v14H6v-14z"/></symbol><symbol id="svg-icon__price-spy" viewBox="0 0 30.076 30.076"><path d="M3.37 2.49H0v25.096h24.912v-3.37H3.37z"/><path d="M17.822 12.306l4.662 4.661-2.785 2.784 10.377 1.827-1.825-10.376-2.589 2.589-7.84-7.839-4.966 4.966-4.667-4.666L5.012 9.43l7.844 7.841z"/></symbol><symbol id="svg-icon__product-wait" viewBox="0 0 510 510"><path d="M255 510c28.05 0 51-22.95 51-51H204c0 28.05 22.95 51 51 51zm165.75-153V216.75c0-79.05-53.55-142.8-127.5-160.65V38.25C293.25 17.85 275.4 0 255 0s-38.25 17.85-38.25 38.25V56.1c-73.95 17.85-127.5 81.6-127.5 160.65V357l-51 51v25.5h433.5V408l-51-51zm-51 25.5h-229.5V216.75C140.25 153 191.25 102 255 102s114.75 51 114.75 114.75V382.5z"/></symbol><symbol id="svg-icon__profile" viewBox="0 0 563.43 563.43"><path d="M280.79 314.559c83.266 0 150.803-67.538 150.803-150.803S364.055 13.415 280.79 13.415 129.987 80.953 129.987 163.756s67.537 150.803 150.803 150.803zm0-261.824c61.061 0 111.021 49.959 111.021 111.021s-49.96 111.02-111.021 111.02-111.021-49.959-111.021-111.021 49.959-111.02 111.021-111.02zM19.891 550.015h523.648c11.102 0 19.891-8.789 19.891-19.891 0-104.082-84.653-189.198-189.198-189.198H189.198C85.116 340.926 0 425.579 0 530.124c0 11.102 8.789 19.891 19.891 19.891zm169.307-169.307h185.034c75.864 0 138.313 56.436 148.028 129.524H41.17c9.714-72.625 72.164-129.524 148.028-129.524z"/></symbol><symbol id="svg-icon__reddit" viewBox="0 0 24 24"><path d="M24 11.5c0-1.65-1.35-3-3-3-.96 0-1.86.48-2.42 1.24-1.64-1-3.75-1.64-6.07-1.72.08-1.1.4-3.05 1.52-3.7.72-.4 1.73-.24 3 .5C17.2 6.3 18.46 7.5 20 7.5c1.65 0 3-1.35 3-3s-1.35-3-3-3c-1.38 0-2.54.94-2.88 2.22-1.43-.72-2.64-.8-3.6-.25-1.64.94-1.95 3.47-2 4.55-2.33.08-4.45.7-6.1 1.72A3.031 3.031 0 0 0 3 8.5c-1.65 0-3 1.35-3 3 0 1.32.84 2.44 2.05 2.84-.03.22-.05.44-.05.66 0 3.86 4.5 7 10 7s10-3.14 10-7c0-.22-.02-.44-.05-.66 1.2-.4 2.05-1.54 2.05-2.84zM2.3 13.37c-.8-.3-1.3-1.02-1.3-1.87 0-1.1.9-2 2-2 .64 0 1.22.32 1.6.82-1.1.85-1.92 1.9-2.3 3.05zm3.7.13c0-1.1.9-2 2-2s2 .9 2 2-.9 2-2 2-2-.9-2-2zm9.8 4.8c-1.08.63-2.42.96-3.8.96-1.4 0-2.74-.34-3.8-.95a.515.515 0 0 1-.2-.68.52.52 0 0 1 .7-.18c1.83 1.06 4.76 1.06 6.6 0a.49.49 0 0 1 .67.2c.14.23.06.54-.18.67zm.2-2.8c-1.1 0-2-.9-2-2s.9-2 2-2 2 .9 2 2-.9 2-2 2zm5.7-2.13c-.38-1.16-1.2-2.2-2.3-3.05.38-.5.97-.82 1.6-.82 1.1 0 2 .9 2 2 0 .84-.53 1.57-1.3 1.87z"/></symbol><symbol id="svg-icon__refresh" viewBox="0 0 155.724 155.723"><path d="M42.735 121.521c-12.77-10.273-20.942-26.025-20.942-43.691 0-26.114 17.882-47.992 42.051-54.23V9.154C31.854 15.646 7.776 43.927 7.776 77.83c0 20.951 9.199 39.738 23.767 52.578 11.276 10.503 18.284-3.514 11.192-8.887zm80.854-96.775c-7.18-6.485-17.693 4.028-10.801 9.236 12.888 10.27 21.143 26.097 21.143 43.848 0 26.118-17.885 48-42.052 54.234v14.449c31.99-6.499 56.068-34.776 56.068-68.684 0-21.227-9.445-40.233-24.358-53.083zM70.037 35.707L92.85 22.046c3.319-1.988 3.326-5.226.018-7.228L69.844.883c-3.312-1.999-5.985-.49-5.969 3.381l.124 28.035c.01 3.869 2.715 5.396 6.038 3.408zm15.846 84.322l-23.027 13.935c-3.311 2.002-3.304 5.239.019 7.228l22.811 13.662c3.319 1.984 6.03.462 6.047-3.412l.12-28.034c.012-3.868-2.665-5.378-5.97-3.379z"/></symbol><symbol id="svg-icon__rotate" viewBox="0 0 16 17"><path d="M8.026 16.03A7.032 7.032 0 0 1 .995 9 7.034 7.034 0 0 1 8 1.96v2.05a5.012 5.012 0 0 0-5.002 5.01c0 2.76 2.241 5 5.005 5A5.004 5.004 0 0 0 13.008 9h2.05c0 3.88-3.148 7.03-7.032 7.03zm4.953-13.02L8.001 6.96V.11z"/></symbol><symbol id="svg-icon__search-thin" viewBox="0 0 21 22.08"><path class="cls-1" d="M21 21.01c-1.08 1.5-2 1-2 1l-4.72-5.72A9 9 0 1 1 18 9.01a11.54 11.54 0 0 1-2 6zm-12-19a7 7 0 1 0 7 7 7 7 0 0 0-7-7z"/></symbol><symbol id="svg-icon__search" viewBox="0 0 13 13"><path d="M12.62 12.62a1.22 1.22 0 0 1-1.72 0l-2.15-2.15a5.72 5.72 0 1 1 1.72-1.72l2.15 2.15a1.22 1.22 0 0 1 0 1.72zm-6.93-11a4.06 4.06 0 1 0 4.06 4.06 4.06 4.06 0 0 0-4.06-4.06z"/></symbol><symbol id="svg-icon__shopping-cart" viewBox="0 0 32 32"><path d="M24.615 27.077c0 .68.241 1.26.721 1.74s1.061.721 1.741.721c.679 0 1.259-.241 1.74-.721s.721-1.06.721-1.74-.24-1.26-.721-1.741a2.373 2.373 0 0 0-1.74-.721c-.68 0-1.26.241-1.741.721s-.721 1.061-.721 1.741z"/><path d="M31.634 5.288a1.181 1.181 0 0 0-.865-.365H7.673c-.013-.09-.042-.253-.087-.49l-.106-.567c-.026-.141-.074-.311-.144-.509s-.154-.356-.25-.471a1.216 1.216 0 0 0-.932-.423H1.231c-.334 0-.622.122-.866.365S0 3.36 0 3.693s.122.622.365.865c.244.244.532.365.866.365h3.923L8.558 20.75c-.025.051-.157.295-.394.731s-.426.817-.567 1.144c-.141.327-.212.58-.212.76 0 .333.122.622.365.866.244.243.532.365.866.365h19.692c.333 0 .622-.122.865-.365s.366-.532.366-.866-.122-.622-.366-.865a1.184 1.184 0 0 0-.865-.366H10.616c.308-.616.462-1.025.462-1.23 0-.129-.016-.27-.048-.423s-.071-.324-.115-.51a4.443 4.443 0 0 1-.086-.413l20.077-2.346c.32-.039.583-.176.788-.414s.307-.509.307-.817V6.155c0-.333-.122-.622-.365-.866z"/><path d="M7.384 27.077c0 .68.24 1.26.721 1.74s1.061.721 1.741.721c.679 0 1.26-.241 1.74-.721s.721-1.06.721-1.74-.24-1.26-.721-1.741c-.481-.48-1.061-.721-1.74-.721s-1.26.241-1.741.721a2.371 2.371 0 0 0-.721 1.741z"/></symbol><symbol id="svg-icon__star" viewBox="0 0 13 13"><path class="svg-star__field" d="M3.5 7.9L1.2 5.5h3.1l2.2-4.4 2.2 4.4h3.1L9.5 7.9l.8 4-3.8-2.5-3.8 2.5z"/><path class="svg-star__edge" d="M6.5 2.2l1.6 3.2.3.6h2.2L9.3 7.4l-.4.4.1.5.5 2.5-2.4-1.6-.6-.4-.6.4-2.5 1.7.6-2.6.1-.5-.4-.4L2.4 6h2.2l.3-.6 1.6-3.2m0-2.2L4 5H0l3 3.1L2 13l4.5-3 4.5 3-1-4.9L13 5H9L6.5 0z"/></symbol><symbol id="svg-icon__table" viewBox="0 0 13 13"><path d="M0 0h3v3H0V0zm5 0h3v3H5V0zm5 0h3v3h-3V0zM0 5h3v3H0V5zm5 0h3v3H5V5zm5 0h3v3h-3V5zM0 10h3v3H0v-3zm5 0h3v3H5v-3zm5 0h3v3h-3v-3z"/></symbol><symbol id="svg-icon__telegram" viewBox="0 0 24 24"><path d="M.707 8.475C.275 8.64 0 9.508 0 9.508s.284.867.718 1.03l5.09 1.897 1.986 6.38a1.102 1.102 0 0 0 1.75.527l2.96-2.41a.405.405 0 0 1 .494-.013l5.34 3.87a1.1 1.1 0 0 0 1.046.135 1.1 1.1 0 0 0 .682-.803l3.91-18.795A1.102 1.102 0 0 0 22.5.075L.706 8.475z"/></symbol><symbol id="svg-icon__tooltip" viewBox="0 0 14 14"><path d="M7.07 0a7.06 7.06 0 1 0 7 7.06 7.07 7.07 0 0 0-7-7.06zm1.68 10.78a5.84 5.84 0 0 1-.75.18 2.26 2.26 0 0 1-.77.12 1.54 1.54 0 0 1-1-.33 1.16 1.16 0 0 1-.46-.84 2.8 2.8 0 0 1 0-.4c0-.13.05-.51.09-.68l.64-1.51c0-.15.08-.3.11-.44a1.57 1.57 0 0 0 0-.28.61.61 0 0 0-.22-.43 1.45 1.45 0 0 0-.7-.13 1.24 1.24 0 0 0-.37.06L5 6.21v-.62c.31-.13.89-.3 1.16-.39a2.9 2.9 0 0 1 .79-.13 1.51 1.51 0 0 1 1 .32 1.46 1.46 0 0 1 .55.91v.38a3.3 3.3 0 0 1-.09.49l-.64 1.5a3.72 3.72 0 0 0-.11.45 5 5 0 0 0 0 .6.55.55 0 0 0 .15.45.56.56 0 0 0 .43.2.93.93 0 0 0 .63-.09zm0-6.92a1 1 0 0 1-.67.29 1 1 0 0 1-.66-.29.87.87 0 0 1 0-1.28.91.91 0 0 1 .66-.28.93.93 0 0 1 .67.26.91.91 0 0 1 .27.66.87.87 0 0 1-.32.64z"/></symbol><symbol id="svg-icon__twitter" viewBox="0 0 56.693 56.693"><path d="M52.837 15.065a20.11 20.11 0 0 1-5.805 1.591 10.125 10.125 0 0 0 4.444-5.592 20.232 20.232 0 0 1-6.418 2.454 10.093 10.093 0 0 0-7.377-3.192c-5.581 0-10.106 4.525-10.106 10.107 0 .791.089 1.562.262 2.303-8.4-.422-15.848-4.445-20.833-10.56a10.055 10.055 0 0 0-1.368 5.082c0 3.506 1.784 6.6 4.496 8.412a10.078 10.078 0 0 1-4.578-1.265l-.001.128c0 4.896 3.484 8.98 8.108 9.91a10.162 10.162 0 0 1-4.565.172c1.287 4.015 5.019 6.938 9.441 7.019a20.276 20.276 0 0 1-12.552 4.327c-.815 0-1.62-.048-2.411-.142a28.6 28.6 0 0 0 15.493 4.541c18.591 0 28.756-15.4 28.756-28.756 0-.438-.009-.875-.028-1.309a20.47 20.47 0 0 0 5.042-5.23z"/></symbol><symbol id="svg-icon__user" viewBox="0 0 16 16"><path d="M15 16H1a1 1 0 0 1-1-1v-1h.1a6 6 0 0 1 4.55-4.83A4 4 0 0 1 4 7V4a4 4 0 1 1 8 0v3a4 4 0 0 1-.65 2.17A6 6 0 0 1 15.9 14h.1v1a1 1 0 0 1-1 1zM10 4a2 2 0 0 0-4 0v3a2 2 0 0 0 4 0V4zm0 7H6a4 4 0 0 0-3.86 3h11.72A4 4 0 0 0 10 11z"/></symbol><symbol id="svg-icon__vk-logo" viewBox="0 0 304.36 304.36"><path d="M261.945 175.576c10.096 9.857 20.752 19.131 29.807 29.982 4 4.822 7.787 9.798 10.684 15.394 4.105 7.955.387 16.709-6.746 17.184l-44.34-.02c-11.436.949-20.559-3.655-28.23-11.474-6.139-6.253-11.824-12.908-17.727-19.372-2.42-2.642-4.953-5.128-7.979-7.093-6.053-3.929-11.307-2.726-14.766 3.587-3.523 6.421-4.322 13.531-4.668 20.687-.475 10.441-3.631 13.186-14.119 13.664-22.414 1.057-43.686-2.334-63.447-13.641-17.422-9.968-30.932-24.04-42.691-39.971-22.895-31.021-40.428-65.108-56.186-100.15C-2.01 76.458.584 72.22 9.295 72.07c14.465-.281 28.928-.261 43.41-.02 5.879.086 9.771 3.458 12.041 9.012 7.826 19.243 17.402 37.551 29.422 54.521 3.201 4.518 6.465 9.036 11.113 12.216 5.142 3.521 9.057 2.354 11.476-3.374 1.535-3.632 2.207-7.544 2.553-11.434 1.146-13.383 1.297-26.743-.713-40.079-1.234-8.323-5.922-13.711-14.227-15.286-4.238-.803-3.607-2.38-1.555-4.799 3.564-4.172 6.916-6.769 13.598-6.769h50.111c7.889 1.557 9.641 5.101 10.721 13.039l.043 55.663c-.086 3.073 1.535 12.192 7.07 14.226 4.43 1.448 7.35-2.096 10.008-4.905 11.998-12.734 20.561-27.783 28.211-43.366 3.395-6.852 6.314-13.968 9.143-21.078 2.096-5.276 5.385-7.872 11.328-7.757l48.229.043c1.43 0 2.877.021 4.262.258 8.127 1.385 10.354 4.881 7.844 12.817-3.955 12.451-11.65 22.827-19.174 33.251-8.043 11.129-16.645 21.877-24.621 33.072-7.328 10.223-6.746 15.376 2.357 24.255zm0 0" fill-rule="evenodd" clip-rule="evenodd"/></symbol><symbol id="svg-icon__vkontakte" viewBox="0 0 30 30"><path clip-rule="evenodd" d="M16 24c1 0 1-1.441 1-2 0-1 1-2 2-2s2.715 1.715 4 3c1 1 1 1 2 1h3s2-.076 2-2c0-.625-.685-1.685-3-4-2-2-3.026-.967 0-5 1.843-2.456 3.184-4.681 2.954-5.323C29.734 7.064 24.608 6.088 24 7c-2 3-2.367 3.735-3 5-1 2-1.099 3-2 3-.909 0-1-1.941-1-3 0-3.306.479-5.644-1-6h-3c-1.61 0-3 1-3 1s-1.241.968-1 1c.298.04 2-.414 2 1v2s.009 4-1 4c-1 0-3-4-5-7-.785-1.177-1-1-2-1-1.072 0-1.999.042-3 .042-1 0-1.128.637-1 .958 2 5 3.437 8.14 7.237 12.096C10.722 23.725 13.05 23.918 15 24c.5.021 0 0 1 0z" fill-rule="evenodd"/></symbol><symbol id="svg-icon__xing" viewBox="0 0 24 24"><path d="M10.2 9.7l-3-5.4C7.2 4 7 4 6.8 4h-5c-.3 0-.4 0-.5.2v.5L4 10 .4 16v.5c0 .2.2.3.4.3h5c.3 0 .4 0 .5-.2l4-6.6v-.5zM24 .2l-.5-.2H18s-.2 0-.3.3l-8 14v.4l5.2 9c0 .2 0 .3.3.3h5.4s.3 0 .4-.2c.2-.2.2-.4 0-.5l-5-8.8L24 .7V.2z"/></symbol><symbol id="svg-icon__yandex-logo" viewBox="0 0 320 320"><path d="M227.184 0h-45.466c-46.063 0-92.541 34.014-92.541 110.004 0 39.361 16.683 70.017 47.263 87.451L80.468 298.762c-2.653 4.791-2.722 10.221-.185 14.525C82.76 317.49 87.288 320 92.395 320h28.311c6.432 0 11.448-3.109 13.852-8.555L187.037 208.8h3.83v98.407c0 6.935 5.852 12.793 12.778 12.793h24.735c7.767 0 13.191-5.424 13.191-13.19V14.002C241.572 5.758 235.656 0 227.184 0zm-36.316 163.204h-6.756c-26.197 0-41.837-21.384-41.837-57.202 0-44.537 19.757-60.405 38.247-60.405h10.346v117.607z"/></symbol><symbol id="svg-icon__zoom" viewBox="0 0 24 24"><path d="M9 9V6h1v3h3v1h-3v3H9v-3H6V9h3zm7.477 5.356a8.5 8.5 0 1 0-2.122 2.122l6.304 6.303c.117.117.303.12.423 0l1.7-1.699a.304.304 0 0 0-.001-.423l-6.304-6.303zM9.5 16a6.5 6.5 0 1 0 0-13 6.5 6.5 0 0 0 0 13z" fill-rule="evenodd"/></symbol></svg>