<svg data-name="Layer 1" xmlns="http://www.w3.org/2000/svg" viewBox="0 0 16 15"><path d="M15.66 9.57L11.9 7.12a.84.84 0 0 0-1.13.21l-.46.64a.84.84 0 0 1-1.22.15c-.21-.18-1.39-1.07-1.58-1.24a.84.84 0 0 1 .11-1.33.84.84 0 0 0 .32-1l-1.67-4a.84.84 0 0 0-.82-.51h-.82a7.1 7.1 0 0 0-3.51 1.11 3.74 3.74 0 0 0-1.1 2.78c0 1.43.51 4.32 4.29 7.5 2.64 2.21 4.88 3.6 6.36 3.6h.31a6.07 6.07 0 0 0 2.36-.52h.11a4.71 4.71 0 0 0 2.32-4zm-2.95 3a4.39 4.39 0 0 1-1.75.43c-.79 0-2.26-.51-5.38-3.14-4.57-3.83-3.6-6.88-3.24-7.17a4.12 4.12 0 0 1 1.74-.6.83.83 0 0 1 .89.5l.45 1.06a.84.84 0 0 1-.33 1l-.51.32a.84.84 0 0 0-.29 1.13c.82 1.46 4.08 4 5.24 4.8a.83.83 0 0 0 1.17-.19l.56-.77a.84.84 0 0 1 1.14-.21l.86.56a.84.84 0 0 1 .31 1 2.66 2.66 0 0 1-.86 1.28z"/></svg>