<svg data-name="Layer 1" xmlns="http://www.w3.org/2000/svg" viewBox="0 0 32 32"><path d="M23.5 32a7.33 7.33 0 0 1-2.45-.42A33.71 33.71 0 0 1 .34 10.33a7.35 7.35 0 0 1 2.53-8.1L4.5 1a5 5 0 0 1 7.48 1.69l2.67 5.18a3.49 3.49 0 0 1-.53 4l-.55.6a2 2 0 0 0-.3 2.21 9.45 9.45 0 0 0 4.09 4.09 2 2 0 0 0 2.21-.3l.61-.55a3.56 3.56 0 0 1 4-.54l5.18 2.66a5 5 0 0 1 1.28 8l-1.8 1.82A7.4 7.4 0 0 1 23.5 32zM7.5 3a2 2 0 0 0-1.21.41l-1.58 1.2a4.35 4.35 0 0 0-1.5 4.8 30.69 30.69 0 0 0 18.85 19.35 4.44 4.44 0 0 0 4.55-1l1.8-1.82a2 2 0 0 0-.51-3.18L22.72 20a.54.54 0 0 0-.56.08l-.61.56a5 5 0 0 1-5.62.75 12.42 12.42 0 0 1-5.38-5.38 5 5 0 0 1 .75-5.61l.55-.6a.49.49 0 0 0 .08-.56L9.26 4.06A2 2 0 0 0 7.5 3z"/></svg>