<svg version="1.1" id="Capa_1" xmlns="http://www.w3.org/2000/svg" x="0px" y="0px"
	 viewBox="0 0 512 512" style="enable-background:new 0 0 512 512;" xml:space="preserve">
<g>
	<g>
		<path d="M106,211.989c-24.814,0-45,20.186-45,45v120c0,24.814,20.186,45,45,45c24.814,0,45-20.186,45-45v-120
			C151,232.175,130.814,211.989,106,211.989z"/>
	</g>
</g>
<g>
	<g>
		<path d="M406,211.989c-24.814,0-45,20.186-45,45v120c0,18.891,11.732,35.035,28.264,41.697
			c-4.169,15.372-16.196,27.398-31.567,31.567c-6.661-16.533-22.806-28.264-41.697-28.264c-24.814,0-45,20.186-45,45
			c0,24.814,20.186,45,45,45c19.999,0,36.791-13.2,42.634-31.278c31.199-5.343,55.745-29.888,61.088-61.088
			C437.8,413.781,451,396.988,451,376.989v-120C451,232.175,430.814,211.989,406,211.989z"/>
	</g>
</g>
<g>
	<g>
		<path d="M415.284,96.088c7.735-19.853,0.603-41.868-16.696-53.52c-83.965-56.733-201.24-56.748-285.176-0.015
			c-17.334,11.701-24.43,33.709-16.692,53.53c-33.129,33.532-55.168,79.254-62.585,125.463c2.684-1.179,5.279-2.523,8.073-3.481
			c7.383-12.052,18.215-21.517,30.881-27.865c9.315-25.47,24.016-51.774,43.061-71.546c15.891,9.202,33.93,7.726,47.624-1.511
			c54.316-36.709,130.166-36.68,184.453,0c14.718,9.926,33.186,9.829,47.628,1.516c19.043,19.77,33.745,46.072,43.057,71.54
			c12.665,6.348,23.498,15.813,30.881,27.865c2.794,0.958,5.389,2.302,8.073,3.481C470.45,175.338,448.413,129.618,415.284,96.088z"
			/>
	</g>
</g>
<g>
	<g>
		<path d="M482,257.372v119.235c18.104-13.705,30-35.213,30-59.617S500.104,271.077,482,257.372z"/>
	</g>
</g>
<g>
	<g>
		<path d="M0,316.989c0,24.404,11.896,45.912,30,59.617V257.372C11.896,271.077,0,292.585,0,316.989z"/>
	</g>
</g>
<g>
</g>
<g>
</g>
<g>
</g>
<g>
</g>
<g>
</g>
<g>
</g>
<g>
</g>
<g>
</g>
<g>
</g>
<g>
</g>
<g>
</g>
<g>
</g>
<g>
</g>
<g>
</g>
<g>
</g>
</svg>
