<svg version="1.1" id="Capa_1" xmlns="http://www.w3.org/2000/svg" x="0px" y="0px"
	 viewBox="0 0 512 512" style="enable-background:new 0 0 512 512;" xml:space="preserve">
<g>
	<g>
		<path d="M482,257.016v-0.041c0-32.426-6.694-63.929-19.898-93.636c-11.082-24.933-26.688-47.849-45.478-66.899
			c6.946-18.677,0.794-40.865-17.032-52.893c-85.888-58.03-201.299-58.029-287.177-0.005C94.62,55.551,88.412,77.715,95.376,96.44
			c-18.79,19.05-34.396,41.965-45.478,66.899C36.694,193.046,30,224.549,30,256.975v0.041c-18.204,13.697-30,35.475-30,59.959
			c0,36.991,26.925,67.792,62.202,73.885c5.866,18.037,22.829,31.115,42.798,31.115c24.813,0,45-20.187,45-45v-120
			c0-24.813-20.187-45-45-45c-19.969,0-36.931,13.078-42.798,31.115c-0.578,0.1-1.157,0.197-1.73,0.31
			c3.14-46.732,22.403-90.706,54.249-123.829c14.864,8.778,33.525,8.364,48.056-1.448c54.018-36.49,132.431-36.49,186.456,0.006
			c14.837,10.008,33.557,9.961,48.047,1.441c31.846,33.124,51.109,77.098,54.249,123.83c-0.573-0.113-1.152-0.21-1.73-0.31
			c-5.866-18.037-22.829-31.115-42.798-31.115c-24.813,0-45,20.187-45,45v120c0,18.957,11.788,35.201,28.414,41.819
			c-4.177,15.328-16.268,27.418-31.595,31.595c-6.618-16.626-22.862-28.414-41.819-28.414c-24.813,0-45,20.187-45,45
			s20.187,45,45,45c19.969,0,36.931-13.078,42.798-31.115c31.115-5.374,55.713-29.973,61.087-61.088
			c13.661-4.443,24.469-15.252,28.913-28.913C485.075,384.767,512,353.966,512,316.975C512,292.491,500.204,270.713,482,257.016z
			 M90,256.975c0-8.271,6.729-15,15-15s15,6.729,15,15v120c0,8.271-6.729,15-15,15s-15-6.729-15-15V256.975z M60,359.404
			c-17.461-6.19-30-22.872-30-42.429c0-19.422,12.436-36.202,30-42.43V359.404z M386.836,89.224
			c-4.626,6.85-13.969,8.659-20.819,4.039C334.785,72.166,295.714,60.547,256,60.547s-78.785,11.619-110.014,32.715
			c-6.911,4.665-16.211,2.789-20.822-4.037c-4.6-6.808-2.901-16.135,4.039-20.82c37.921-25.621,82.355-38.431,126.795-38.431
			c44.438,0,88.882,12.812,126.806,38.435C389.675,73.046,391.478,82.355,386.836,89.224z M317,481.975c-8.271,0-15-6.729-15-15
			s6.729-15,15-15s15,6.729,15,15S325.271,481.975,317,481.975z M422,376.975c0,8.271-6.729,15-15,15s-15-6.729-15-15v-120
			c0-8.271,6.729-15,15-15s15,6.729,15,15V376.975z M452,359.405v-84.859c17.461,6.191,30,22.873,30,42.43
			S469.461,353.214,452,359.405z"/>
	</g>
</g>
<g>
</g>
<g>
</g>
<g>
</g>
<g>
</g>
<g>
</g>
<g>
</g>
<g>
</g>
<g>
</g>
<g>
</g>
<g>
</g>
<g>
</g>
<g>
</g>
<g>
</g>
<g>
</g>
<g>
</g>
</svg>
