<svg xmlns="http://www.w3.org/2000/svg" viewBox="0 0 612 612" >
<g>
	<path d="M586.923,256.013c-7.959-8.24-16.655-13.074-24.53-15.916c10.798-62.807,8.812-97.901-246.643-178.322
		C55.771-20.07,26.688,13.85,5.274,81.869L1.622,93.471c-5.794,18.406,4.43,38.025,22.836,43.82l83.405,26.257
		c18.407,5.794,38.025-4.43,43.82-22.836l3.652-11.602c16.587-52.69,97.773-28.905,143.76-14.428
		c45.986,14.477,126.155,41.49,109.568,94.18l-3.653,11.601c-5.794,18.406,4.43,38.025,22.836,43.82l83.405,26.257
		c18.406,5.795,38.025-4.429,43.82-22.835l2.369-8.038c4.933,2.036,10.229,5.149,15.123,10.215
		c17.553,18.182,23.378,53.308,16.842,101.589c-11.335,83.657-44.21,113.537-79.221,123.481v-14.553
		c0-14.775-3.693-29.4-11.181-42.179c-34.94-59.797-84.556-112.856-147.598-159.626v-35.34c0-2.745-2.246-4.992-4.991-4.992h-51.862
		c-2.795,0-4.992,2.247-4.992,4.992v35.139h-59.199v-35.139c0-2.745-2.246-4.992-4.992-4.992H173.46
		c-2.746,0-4.992,2.247-4.992,4.992v35.139C105.326,325.264,55.661,378.322,20.67,438.22C13.183,450.998,9.49,465.623,9.49,480.397
		v32.894c0,46.87,37.985,84.855,84.854,84.855h330.984c46.136,0,83.581-36.824,84.745-82.679
		c56.115-13.143,87.95-58.928,99.111-141.316C616.681,318.816,609.189,279.069,586.923,256.013z M346.544,481.271l-33.304-11.858
		c3.533-7.12,5.57-15.115,5.57-23.606c0-29.35-23.809-53.159-53.208-53.159c-29.35,0-53.209,23.81-53.209,53.159
		c0,29.4,23.859,53.21,53.209,53.21c10.87,0,20.965-3.271,29.386-8.859l18.266,30.026c-13.76,8.835-30.087,14.022-47.652,14.022
		c-48.817,0-88.349-39.582-88.349-88.398c0-48.767,39.533-88.349,88.349-88.349c48.816,0,88.399,39.583,88.399,88.349
		C354.001,458.429,351.311,470.408,346.544,481.271z"/>
</g>
<g>
</g>
<g>
</g>
<g>
</g>
<g>
</g>
<g>
</g>
<g>
</g>
<g>
</g>
<g>
</g>
<g>
</g>
<g></g><g></g><g></g><g></g><g></g><g></g></svg>
