<svg xmlns="http://www.w3.org/2000/svg"><symbol id="svg-icon__angle-left" viewBox="0 0 15.1 32.98"><path d="M13.23.3a1.11 1.11 0 0 1 1.52 1.61l-12 14.58 12 14.58a1.11 1.11 0 0 1 0 1.57 1.1 1.1 0 0 1-1.56 0L.3 17.26a1.11 1.11 0 0 1 0-1.61z"/></symbol><symbol id="svg-icon__angle-right" viewBox="0 0 15 33.01"><path d="M1.85.3A1.09 1.09 0 0 0 .3.3a1.12 1.12 0 0 0 0 1.57l12 14.59-12 14.59a1.12 1.12 0 0 0 0 1.57 1.09 1.09 0 0 0 1.55 0l12.81-15.4a1.12 1.12 0 0 0 0-1.61z"/></symbol><symbol id="svg-icon__arrow-big-left" viewBox="0 0 15.1 32.98"><path d="M13.23.3a1.11 1.11 0 0 1 1.52 1.61l-12 14.58 12 14.58a1.11 1.11 0 0 1 0 1.57 1.1 1.1 0 0 1-1.56 0L.3 17.26a1.11 1.11 0 0 1 0-1.61z"/></symbol><symbol id="svg-icon__arrow-big-right" viewBox="0 0 15 33.01"><path d="M1.85.3A1.09 1.09 0 0 0 .3.3a1.12 1.12 0 0 0 0 1.57l12 14.59-12 14.59a1.12 1.12 0 0 0 0 1.57 1.09 1.09 0 0 0 1.55 0l12.81-15.4a1.12 1.12 0 0 0 0-1.61z"/></symbol><symbol id="svg-icon__arrow-down" viewBox="0 0 32 32"><path d="M31.406 7.594A1.92 1.92 0 0 0 30 7H2c-.542 0-1.011.198-1.406.594S0 8.459 0 9.001s.198 1.01.594 1.406l14 14c.396.396.865.594 1.406.594s1.011-.198 1.406-.594l14-14c.395-.396.594-.864.594-1.406s-.199-1.01-.594-1.406z"/></symbol><symbol id="svg-icon__calendar" viewBox="0 0 14 14" preserveAspectRatio="xMidYMid"><path d="M7 14A7 7 0 1 1 7 0a7 7 0 0 1 0 14zM7 1.75a5.25 5.25 0 1 0 0 10.5 5.25 5.25 0 1 0 0-10.5zm-.875 6.125V3.5h1.75v2.625h1.75v1.75h-3.5z" class="cls-1"/></symbol><symbol id="svg-icon__comment" viewBox="0 0 14 13.594" preserveAspectRatio="xMidYMid"><path d="M3.037 10.5l-.06-.391v3.5l3.585-2.625h1.75c3.141 0 5.688-2.156 5.688-5.297A5.688 5.688 0 0 0 8.312 0H5.687A5.687 5.687 0 0 0 0 5.687C0 7.722 1.43 9.495 3.037 10.5zm2.65-8.75h2.625a3.938 3.938 0 0 1 3.938 3.937c0 2.175-1.763 3.547-3.938 3.547h-1.75l-2.187 1.312V8.992C2.849 8.45 1.75 7.399 1.75 5.687A3.937 3.937 0 0 1 5.687 1.75z" class="cls-1"/></symbol><symbol id="svg-icon__compare" viewBox="0 0 14 12"><path d="M6 0h2a1 1 0 0 1 1 1v10a1 1 0 0 1-1 1H6a1 1 0 0 1-1-1V1a1 1 0 0 1 1-1zM1 4h2a1 1 0 0 1 1 1v6a1 1 0 0 1-1 1H1a1 1 0 0 1-1-1V5a1 1 0 0 1 1-1zm10 2h2a1 1 0 0 1 1 1v4a1 1 0 0 1-1 1h-2a1 1 0 0 1-1-1V7a1 1 0 0 1 1-1z"/></symbol><symbol id="svg-icon__delete" viewBox="0 0 35.413 35.413"><path d="M20.535 17.294L34.002 3.827A2 2 0 1 0 31.174.999L17.707 14.466 4.242.999a2 2 0 1 0-2.828 2.828l13.465 13.467L.586 31.587a2 2 0 1 0 2.828 2.828l14.293-14.293L32 34.415c.391.391.902.586 1.414.586s1.023-.195 1.414-.586a2 2 0 0 0 0-2.828L20.535 17.294z"/></symbol><symbol id="svg-icon__heart" viewBox="0 0 13 12"><path d="M6.01 10.987V11s0-.004-.01-.007c0 .003-.01.007-.01.007v-.014C5.61 10.743.01 7.145.01 3.54 0 1.558 1.04.008 3.35.005 5.44.003 5.92 1.592 5.99 1.882c.07-.29.55-1.88 2.66-1.881C10.96-.001 12 1.547 12 3.529c.01 3.605-5.6 7.214-5.99 7.458z"/></symbol><symbol id="svg-icon__move" viewBox="0 0 18 14"><path d="M6 13.02V5.016h2.994L4.992 0 .99 5.016h3.041v8.004zM12 .012v7.984H9.006L13.008 13l4.002-5.004h-3.041V.012z" fill="#c89347"/></symbol><symbol id="svg-icon__star" viewBox="0 0 520.08 494.03"><path class="cls-1" d="M497.58 198.08c0-7-162.31-27-162.31-27S265.75 22.51 260.04 22.51s-75.23 148.6-75.23 148.6S22.5 191.04 22.5 198.08c0 4 117.06 114.77 117.06 114.77s-30.12 155.84-28.12 158.6 148.6-74.67 148.6-74.67 146.33 77.43 148.33 74.67-27.87-158.59-27.87-158.59 117.08-110.59 117.08-114.78z"/></symbol><symbol id="svg-icon__user" viewBox="0 0 12 13"><path d="M8.902 8.275c1.846.897 3.098 2.452 3.098 3.37C12 12.993 9.31 13 6 13s-6-.008-6-1.354c0-.919 1.252-2.474 3.098-3.37C3.828 9.337 4.86 10 6 10c1.14 0 2.171-.662 2.902-1.725zM6 .99c1.66 0 3.01.906 3.01 3.438S7.66 9.01 6 9.01c-1.66 0-3.01-2.052-3.01-4.584C2.99 1.895 4.34.989 6 .989z"/></symbol></svg>